<svg width="48" height="48" viewBox="0 0 48 48" fill="none" xmlns="http://www.w3.org/2000/svg" xmlns:xlink="http://www.w3.org/1999/xlink">
<path d="M0,9.786L0,37.74C0,45.069 7.78,49.792 14.296,46.418L40.798,32.703C48.46,28.736 48.336,17.752 40.582,13.959L14.098,1.009C7.592,-2.173 0,2.556 0,9.786Z" fill="#252521"/>
<path d="M11.698,40.735C14.614,40.735 16.978,38.403 16.978,35.527C16.978,32.65 14.614,30.318 11.698,30.318C8.782,30.318 6.418,32.65 6.418,35.527C6.418,38.403 8.782,40.735 11.698,40.735Z" fill="#E16CC0"/>
<path d="M11.698,40.575C14.614,40.575 16.978,38.243 16.978,35.367C16.978,32.49 14.614,30.158 11.698,30.158C8.782,30.158 6.418,32.49 6.418,35.367C6.418,38.243 8.782,40.575 11.698,40.575Z" fill="#E16DC1"/>
<path d="M11.698,40.413C14.614,40.413 16.978,38.081 16.978,35.204C16.978,32.327 14.614,29.995 11.698,29.995C8.782,29.995 6.418,32.327 6.418,35.204C6.418,38.081 8.782,40.413 11.698,40.413Z" fill="#E26EC1"/>
<path d="M11.698,40.253C14.614,40.253 16.978,37.921 16.978,35.044C16.978,32.167 14.614,29.835 11.698,29.835C8.782,29.835 6.418,32.167 6.418,35.044C6.418,37.921 8.782,40.253 11.698,40.253Z" fill="#E26FC2"/>
<path d="M11.698,40.09C14.614,40.09 16.978,37.758 16.978,34.881C16.978,32.005 14.614,29.673 11.698,29.673C8.782,29.673 6.418,32.005 6.418,34.881C6.418,37.758 8.782,40.09 11.698,40.09Z" fill="#E270C2"/>
<path d="M11.698,39.93C14.614,39.93 16.978,37.598 16.978,34.721C16.978,31.844 14.614,29.512 11.698,29.512C8.782,29.512 6.418,31.844 6.418,34.721C6.418,37.598 8.782,39.93 11.698,39.93Z" fill="#E271C3"/>
<path d="M11.698,39.77C14.614,39.77 16.978,37.438 16.978,34.561C16.978,31.685 14.614,29.353 11.698,29.353C8.782,29.353 6.418,31.685 6.418,34.561C6.418,37.438 8.782,39.77 11.698,39.77Z" fill="#E272C3"/>
<path d="M11.698,39.607C14.614,39.607 16.978,37.275 16.978,34.398C16.978,31.522 14.614,29.19 11.698,29.19C8.782,29.19 6.418,31.522 6.418,34.398C6.418,37.275 8.782,39.607 11.698,39.607Z" fill="#E373C3"/>
<path d="M11.698,39.447C14.614,39.447 16.978,37.115 16.978,34.238C16.978,31.362 14.614,29.03 11.698,29.03C8.782,29.03 6.418,31.362 6.418,34.238C6.418,37.115 8.782,39.447 11.698,39.447Z" fill="#E374C4"/>
<path d="M11.698,39.284C14.614,39.284 16.978,36.952 16.978,34.076C16.978,31.199 14.614,28.867 11.698,28.867C8.782,28.867 6.418,31.199 6.418,34.076C6.418,36.952 8.782,39.284 11.698,39.284Z" fill="#E375C4"/>
<path d="M11.698,39.124C14.614,39.124 16.978,36.792 16.978,33.915C16.978,31.039 14.614,28.707 11.698,28.707C8.782,28.707 6.418,31.039 6.418,33.915C6.418,36.792 8.782,39.124 11.698,39.124Z" fill="#E376C5"/>
<path d="M11.698,38.964C14.614,38.964 16.978,36.632 16.978,33.756C16.978,30.879 14.614,28.547 11.698,28.547C8.782,28.547 6.418,30.879 6.418,33.756C6.418,36.632 8.782,38.964 11.698,38.964Z" fill="#E377C5"/>
<path d="M11.698,38.802C14.614,38.802 16.978,36.47 16.978,33.593C16.978,30.716 14.614,28.384 11.698,28.384C8.782,28.384 6.418,30.716 6.418,33.593C6.418,36.47 8.782,38.802 11.698,38.802Z" fill="#E478C6"/>
<path d="M11.698,38.641C14.614,38.641 16.978,36.309 16.978,33.433C16.978,30.556 14.614,28.224 11.698,28.224C8.782,28.224 6.418,30.556 6.418,33.433C6.418,36.309 8.782,38.641 11.698,38.641Z" fill="#E479C6"/>
<path d="M11.698,38.479C14.614,38.479 16.978,36.147 16.978,33.27C16.978,30.393 14.614,28.061 11.698,28.061C8.782,28.061 6.418,30.393 6.418,33.27C6.418,36.147 8.782,38.479 11.698,38.479Z" fill="#E47AC6"/>
<path d="M11.698,38.319C14.614,38.319 16.978,35.987 16.978,33.11C16.978,30.233 14.614,27.901 11.698,27.901C8.782,27.901 6.418,30.233 6.418,33.11C6.418,35.987 8.782,38.319 11.698,38.319Z" fill="#E47BC7"/>
<path d="M11.698,38.158C14.614,38.158 16.978,35.826 16.978,32.95C16.978,30.073 14.614,27.741 11.698,27.741C8.782,27.741 6.418,30.073 6.418,32.95C6.418,35.826 8.782,38.158 11.698,38.158Z" fill="#E47CC7"/>
<path d="M11.698,37.996C14.614,37.996 16.978,35.664 16.978,32.787C16.978,29.91 14.614,27.578 11.698,27.578C8.782,27.578 6.418,29.91 6.418,32.787C6.418,35.664 8.782,37.996 11.698,37.996Z" fill="#E57DC8"/>
<path d="M11.698,37.836C14.614,37.836 16.978,35.504 16.978,32.627C16.978,29.751 14.614,27.419 11.698,27.419C8.782,27.419 6.418,29.751 6.418,32.627C6.418,35.504 8.782,37.836 11.698,37.836Z" fill="#E57EC8"/>
<path d="M11.698,37.673C14.614,37.673 16.978,35.341 16.978,32.464C16.978,29.588 14.614,27.256 11.698,27.256C8.782,27.256 6.418,29.588 6.418,32.464C6.418,35.341 8.782,37.673 11.698,37.673Z" fill="#E57FC9"/>
<path d="M11.698,37.513C14.614,37.513 16.978,35.181 16.978,32.304C16.978,29.428 14.614,27.096 11.698,27.096C8.782,27.096 6.418,29.428 6.418,32.304C6.418,35.181 8.782,37.513 11.698,37.513Z" fill="#E580C9"/>
<path d="M11.698,37.35C14.614,37.35 16.978,35.018 16.978,32.142C16.978,29.265 14.614,26.933 11.698,26.933C8.782,26.933 6.418,29.265 6.418,32.142C6.418,35.018 8.782,37.35 11.698,37.35Z" fill="#E581C9"/>
<path d="M11.698,37.19C14.614,37.19 16.978,34.858 16.978,31.982C16.978,29.105 14.614,26.773 11.698,26.773C8.782,26.773 6.418,29.105 6.418,31.982C6.418,34.858 8.782,37.19 11.698,37.19Z" fill="#E682CA"/>
<path d="M11.698,37.031C14.614,37.031 16.978,34.699 16.978,31.822C16.978,28.945 14.614,26.613 11.698,26.613C8.782,26.613 6.418,28.945 6.418,31.822C6.418,34.699 8.782,37.031 11.698,37.031Z" fill="#E683CA"/>
<path d="M11.698,36.867C14.614,36.867 16.978,34.535 16.978,31.659C16.978,28.782 14.614,26.45 11.698,26.45C8.782,26.45 6.418,28.782 6.418,31.659C6.418,34.535 8.782,36.867 11.698,36.867Z" fill="#E684CB"/>
<path d="M11.698,36.708C14.614,36.708 16.978,34.376 16.978,31.499C16.978,28.622 14.614,26.29 11.698,26.29C8.782,26.29 6.418,28.622 6.418,31.499C6.418,34.376 8.782,36.708 11.698,36.708Z" fill="#E685CB"/>
<path d="M11.698,36.544C14.614,36.544 16.978,34.212 16.978,31.336C16.978,28.459 14.614,26.127 11.698,26.127C8.782,26.127 6.418,28.459 6.418,31.336C6.418,34.212 8.782,36.544 11.698,36.544Z" fill="#E686CB"/>
<path d="M11.698,36.385C14.614,36.385 16.978,34.053 16.978,31.176C16.978,28.3 14.614,25.968 11.698,25.968C8.782,25.968 6.418,28.3 6.418,31.176C6.418,34.053 8.782,36.385 11.698,36.385Z" fill="#E787CC"/>
<path d="M11.698,36.225C14.614,36.225 16.978,33.893 16.978,31.016C16.978,28.14 14.614,25.808 11.698,25.808C8.782,25.808 6.418,28.14 6.418,31.016C6.418,33.893 8.782,36.225 11.698,36.225Z" fill="#E788CC"/>
<path d="M11.698,36.062C14.614,36.062 16.978,33.73 16.978,30.853C16.978,27.977 14.614,25.645 11.698,25.645C8.782,25.645 6.418,27.977 6.418,30.853C6.418,33.73 8.782,36.062 11.698,36.062Z" fill="#E789CD"/>
<path d="M11.698,35.902C14.614,35.902 16.978,33.57 16.978,30.693C16.978,27.817 14.614,25.485 11.698,25.485C8.782,25.485 6.418,27.817 6.418,30.693C6.418,33.57 8.782,35.902 11.698,35.902Z" fill="#E78ACD"/>
<path d="M11.698,35.739C14.614,35.739 16.978,33.407 16.978,30.53C16.978,27.654 14.614,25.322 11.698,25.322C8.782,25.322 6.418,27.654 6.418,30.53C6.418,33.407 8.782,35.739 11.698,35.739Z" fill="#E78BCE"/>
<path d="M11.698,35.579C14.614,35.579 16.978,33.247 16.978,30.371C16.978,27.494 14.614,25.162 11.698,25.162C8.782,25.162 6.418,27.494 6.418,30.371C6.418,33.247 8.782,35.579 11.698,35.579Z" fill="#E88CCE"/>
<path d="M11.698,35.419C14.614,35.419 16.978,33.087 16.978,30.211C16.978,27.334 14.614,25.002 11.698,25.002C8.782,25.002 6.418,27.334 6.418,30.211C6.418,33.087 8.782,35.419 11.698,35.419Z" fill="#E88DCE"/>
<path d="M11.698,35.256C14.614,35.256 16.978,32.924 16.978,30.048C16.978,27.171 14.614,24.839 11.698,24.839C8.782,24.839 6.418,27.171 6.418,30.048C6.418,32.924 8.782,35.256 11.698,35.256Z" fill="#E88ECF"/>
<path d="M11.698,35.096C14.614,35.096 16.978,32.764 16.978,29.888C16.978,27.011 14.614,24.679 11.698,24.679C8.782,24.679 6.418,27.011 6.418,29.888C6.418,32.764 8.782,35.096 11.698,35.096Z" fill="#E88FCF"/>
<path d="M11.698,34.934C14.614,34.934 16.978,32.602 16.978,29.725C16.978,26.848 14.614,24.516 11.698,24.516C8.782,24.516 6.418,26.848 6.418,29.725C6.418,32.602 8.782,34.934 11.698,34.934Z" fill="#E990D0"/>
<path d="M11.698,34.773C14.614,34.773 16.978,32.441 16.978,29.565C16.978,26.688 14.614,24.356 11.698,24.356C8.782,24.356 6.418,26.688 6.418,29.565C6.418,32.441 8.782,34.773 11.698,34.773Z" fill="#E991D0"/>
<path d="M11.698,34.614C14.614,34.614 16.978,32.282 16.978,29.405C16.978,26.528 14.614,24.196 11.698,24.196C8.782,24.196 6.418,26.528 6.418,29.405C6.418,32.282 8.782,34.614 11.698,34.614Z" fill="#E992D1"/>
<path d="M11.698,34.451C14.614,34.451 16.978,32.119 16.978,29.242C16.978,26.366 14.614,24.034 11.698,24.034C8.782,24.034 6.418,26.366 6.418,29.242C6.418,32.119 8.782,34.451 11.698,34.451Z" fill="#E993D1"/>
<path d="M11.698,34.291C14.614,34.291 16.978,31.959 16.978,29.082C16.978,26.206 14.614,23.874 11.698,23.874C8.782,23.874 6.418,26.206 6.418,29.082C6.418,31.959 8.782,34.291 11.698,34.291Z" fill="#E994D1"/>
<path d="M11.698,34.128C14.614,34.128 16.978,31.796 16.978,28.919C16.978,26.042 14.614,23.71 11.698,23.71C8.782,23.71 6.418,26.042 6.418,28.919C6.418,31.796 8.782,34.128 11.698,34.128Z" fill="#EA95D2"/>
<path d="M11.698,33.968C14.614,33.968 16.978,31.636 16.978,28.759C16.978,25.883 14.614,23.551 11.698,23.551C8.782,23.551 6.418,25.883 6.418,28.759C6.418,31.636 8.782,33.968 11.698,33.968Z" fill="#EA96D2"/>
<path d="M11.698,33.808C14.614,33.808 16.978,31.476 16.978,28.6C16.978,25.723 14.614,23.391 11.698,23.391C8.782,23.391 6.418,25.723 6.418,28.6C6.418,31.476 8.782,33.808 11.698,33.808Z" fill="#EA97D3"/>
<path d="M11.698,33.645C14.614,33.645 16.978,31.313 16.978,28.436C16.978,25.56 14.614,23.228 11.698,23.228C8.782,23.228 6.418,25.56 6.418,28.436C6.418,31.313 8.782,33.645 11.698,33.645Z" fill="#EA98D3"/>
<path d="M11.698,33.485C14.614,33.485 16.978,31.153 16.978,28.277C16.978,25.4 14.614,23.068 11.698,23.068C8.782,23.068 6.418,25.4 6.418,28.277C6.418,31.153 8.782,33.485 11.698,33.485Z" fill="#EA99D4"/>
<path d="M11.698,33.322C14.614,33.322 16.978,30.99 16.978,28.114C16.978,25.237 14.614,22.905 11.698,22.905C8.782,22.905 6.418,25.237 6.418,28.114C6.418,30.99 8.782,33.322 11.698,33.322Z" fill="#EB9AD4"/>
<path d="M11.698,33.162C14.614,33.162 16.978,30.83 16.978,27.954C16.978,25.077 14.614,22.745 11.698,22.745C8.782,22.745 6.418,25.077 6.418,27.954C6.418,30.83 8.782,33.162 11.698,33.162Z" fill="#EB9BD4"/>
<path d="M11.698,33.002C14.614,33.002 16.978,30.67 16.978,27.794C16.978,24.917 14.614,22.585 11.698,22.585C8.782,22.585 6.418,24.917 6.418,27.794C6.418,30.67 8.782,33.002 11.698,33.002Z" fill="#EB9CD5"/>
<path d="M11.698,32.84C14.614,32.84 16.978,30.508 16.978,27.631C16.978,24.754 14.614,22.422 11.698,22.422C8.782,22.422 6.418,24.754 6.418,27.631C6.418,30.508 8.782,32.84 11.698,32.84Z" fill="#EB9DD5"/>
<path d="M11.698,32.679C14.614,32.679 16.978,30.347 16.978,27.471C16.978,24.594 14.614,22.262 11.698,22.262C8.782,22.262 6.418,24.594 6.418,27.471C6.418,30.347 8.782,32.679 11.698,32.679Z" fill="#EB9ED6"/>
<path d="M11.698,32.517C14.614,32.517 16.978,30.185 16.978,27.308C16.978,24.431 14.614,22.099 11.698,22.099C8.782,22.099 6.418,24.431 6.418,27.308C6.418,30.185 8.782,32.517 11.698,32.517Z" fill="#EC9FD6"/>
<path d="M11.698,32.357C14.614,32.357 16.978,30.025 16.978,27.148C16.978,24.271 14.614,21.939 11.698,21.939C8.782,21.939 6.418,24.271 6.418,27.148C6.418,30.025 8.782,32.357 11.698,32.357Z" fill="#ECA0D7"/>
<path d="M11.698,32.194C14.614,32.194 16.978,29.862 16.978,26.985C16.978,24.108 14.614,21.776 11.698,21.776C8.782,21.776 6.418,24.108 6.418,26.985C6.418,29.862 8.782,32.194 11.698,32.194Z" fill="#ECA1D7"/>
<path d="M11.698,32.034C14.614,32.034 16.978,29.702 16.978,26.825C16.978,23.949 14.614,21.617 11.698,21.617C8.782,21.617 6.418,23.949 6.418,26.825C6.418,29.702 8.782,32.034 11.698,32.034Z" fill="#ECA2D7"/>
<path d="M11.698,31.874C14.614,31.874 16.978,29.542 16.978,26.665C16.978,23.789 14.614,21.457 11.698,21.457C8.782,21.457 6.418,23.789 6.418,26.665C6.418,29.542 8.782,31.874 11.698,31.874Z" fill="#ECA3D8"/>
<path d="M11.698,31.711C14.614,31.711 16.978,29.379 16.978,26.503C16.978,23.626 14.614,21.294 11.698,21.294C8.782,21.294 6.418,23.626 6.418,26.503C6.418,29.379 8.782,31.711 11.698,31.711Z" fill="#EDA4D8"/>
<path d="M11.698,31.551C14.614,31.551 16.978,29.219 16.978,26.342C16.978,23.466 14.614,21.134 11.698,21.134C8.782,21.134 6.418,23.466 6.418,26.342C6.418,29.219 8.782,31.551 11.698,31.551Z" fill="#EDA5D9"/>
<path d="M11.698,31.388C14.614,31.388 16.978,29.056 16.978,26.18C16.978,23.303 14.614,20.971 11.698,20.971C8.782,20.971 6.418,23.303 6.418,26.18C6.418,29.056 8.782,31.388 11.698,31.388Z" fill="#EDA6D9"/>
<path d="M11.698,31.229C14.614,31.229 16.978,28.897 16.978,26.02C16.978,23.143 14.614,20.811 11.698,20.811C8.782,20.811 6.418,23.143 6.418,26.02C6.418,28.897 8.782,31.229 11.698,31.229Z" fill="#EDA7DA"/>
<path d="M11.698,31.069C14.614,31.069 16.978,28.737 16.978,25.86C16.978,22.983 14.614,20.651 11.698,20.651C8.782,20.651 6.418,22.983 6.418,25.86C6.418,28.737 8.782,31.069 11.698,31.069Z" fill="#EDA8DA"/>
<path d="M11.698,30.906C14.614,30.906 16.978,28.574 16.978,25.697C16.978,22.82 14.614,20.488 11.698,20.488C8.782,20.488 6.418,22.82 6.418,25.697C6.418,28.574 8.782,30.906 11.698,30.906Z" fill="#EEA9DA"/>
<path d="M11.698,30.746C14.614,30.746 16.978,28.414 16.978,25.537C16.978,22.66 14.614,20.328 11.698,20.328C8.782,20.328 6.418,22.66 6.418,25.537C6.418,28.414 8.782,30.746 11.698,30.746Z" fill="#EEAADB"/>
<path d="M11.698,30.583C14.614,30.583 16.978,28.251 16.978,25.374C16.978,22.498 14.614,20.166 11.698,20.166C8.782,20.166 6.418,22.498 6.418,25.374C6.418,28.251 8.782,30.583 11.698,30.583Z" fill="#EEABDB"/>
<path d="M11.698,30.423C14.614,30.423 16.978,28.091 16.978,25.214C16.978,22.338 14.614,20.006 11.698,20.006C8.782,20.006 6.418,22.338 6.418,25.214C6.418,28.091 8.782,30.423 11.698,30.423Z" fill="#EEACDC"/>
<path d="M11.698,30.263C14.614,30.263 16.978,27.931 16.978,25.054C16.978,22.178 14.614,19.846 11.698,19.846C8.782,19.846 6.418,22.178 6.418,25.054C6.418,27.931 8.782,30.263 11.698,30.263Z" fill="#EEADDC"/>
<path d="M11.698,30.1C14.614,30.1 16.978,27.768 16.978,24.892C16.978,22.015 14.614,19.683 11.698,19.683C8.782,19.683 6.418,22.015 6.418,24.892C6.418,27.768 8.782,30.1 11.698,30.1Z" fill="#EFAEDD"/>
<path d="M11.698,29.94C14.614,29.94 16.978,27.608 16.978,24.732C16.978,21.855 14.614,19.523 11.698,19.523C8.782,19.523 6.418,21.855 6.418,24.732C6.418,27.608 8.782,29.94 11.698,29.94Z" fill="#EFAFDD"/>
<path d="M11.698,29.777C14.614,29.777 16.978,27.445 16.978,24.569C16.978,21.692 14.614,19.36 11.698,19.36C8.782,19.36 6.418,21.692 6.418,24.569C6.418,27.445 8.782,29.777 11.698,29.777Z" fill="#EFB0DD"/>
<path d="M11.698,29.617C14.614,29.617 16.978,27.285 16.978,24.409C16.978,21.532 14.614,19.2 11.698,19.2C8.782,19.2 6.418,21.532 6.418,24.409C6.418,27.285 8.782,29.617 11.698,29.617Z" fill="#EFB1DE"/>
<path d="M11.698,29.458C14.614,29.458 16.978,27.126 16.978,24.249C16.978,21.372 14.614,19.04 11.698,19.04C8.782,19.04 6.418,21.372 6.418,24.249C6.418,27.126 8.782,29.458 11.698,29.458Z" fill="#EFB2DE"/>
<path d="M11.698,29.294C14.614,29.294 16.978,26.962 16.978,24.086C16.978,21.209 14.614,18.877 11.698,18.877C8.782,18.877 6.418,21.209 6.418,24.086C6.418,26.962 8.782,29.294 11.698,29.294Z" fill="#F0B3DF"/>
<path d="M11.698,29.135C14.614,29.135 16.978,26.803 16.978,23.926C16.978,21.049 14.614,18.717 11.698,18.717C8.782,18.717 6.418,21.049 6.418,23.926C6.418,26.803 8.782,29.135 11.698,29.135Z" fill="#F0B4DF"/>
<path d="M11.698,28.972C14.614,28.972 16.978,26.64 16.978,23.763C16.978,20.886 14.614,18.554 11.698,18.554C8.782,18.554 6.418,20.886 6.418,23.763C6.418,26.64 8.782,28.972 11.698,28.972Z" fill="#F0B5E0"/>
<path d="M11.698,28.812C14.614,28.812 16.978,26.48 16.978,23.603C16.978,20.726 14.614,18.394 11.698,18.394C8.782,18.394 6.418,20.726 6.418,23.603C6.418,26.48 8.782,28.812 11.698,28.812Z" fill="#F0B6E0"/>
<path d="M11.698,28.652C14.614,28.652 16.978,26.32 16.978,23.443C16.978,20.566 14.614,18.234 11.698,18.234C8.782,18.234 6.418,20.566 6.418,23.443C6.418,26.32 8.782,28.652 11.698,28.652Z" fill="#F0B7E0"/>
<path d="M11.698,28.489C14.614,28.489 16.978,26.157 16.978,23.28C16.978,20.404 14.614,18.072 11.698,18.072C8.782,18.072 6.418,20.404 6.418,23.28C6.418,26.157 8.782,28.489 11.698,28.489Z" fill="#F1B8E1"/>
<path d="M11.698,28.329C14.614,28.329 16.978,25.997 16.978,23.12C16.978,20.243 14.614,17.911 11.698,17.911C8.782,17.911 6.418,20.243 6.418,23.12C6.418,25.997 8.782,28.329 11.698,28.329Z" fill="#F1B9E1"/>
<path d="M11.698,28.166C14.614,28.166 16.978,25.834 16.978,22.957C16.978,20.081 14.614,17.749 11.698,17.749C8.782,17.749 6.418,20.081 6.418,22.957C6.418,25.834 8.782,28.166 11.698,28.166Z" fill="#F1BAE2"/>
<path d="M11.698,28.006C14.614,28.006 16.978,25.674 16.978,22.798C16.978,19.921 14.614,17.589 11.698,17.589C8.782,17.589 6.418,19.921 6.418,22.798C6.418,25.674 8.782,28.006 11.698,28.006Z" fill="#F1BBE2"/>
<path d="M11.698,27.846C14.614,27.846 16.978,25.514 16.978,22.638C16.978,19.761 14.614,17.429 11.698,17.429C8.782,17.429 6.418,19.761 6.418,22.638C6.418,25.514 8.782,27.846 11.698,27.846Z" fill="#F1BCE2"/>
<path d="M11.698,27.683C14.614,27.683 16.978,25.351 16.978,22.475C16.978,19.598 14.614,17.266 11.698,17.266C8.782,17.266 6.418,19.598 6.418,22.475C6.418,25.351 8.782,27.683 11.698,27.683Z" fill="#F2BDE3"/>
<path d="M11.698,27.523C14.614,27.523 16.978,25.191 16.978,22.315C16.978,19.438 14.614,17.106 11.698,17.106C8.782,17.106 6.418,19.438 6.418,22.315C6.418,25.191 8.782,27.523 11.698,27.523Z" fill="#F2BEE3"/>
<path d="M11.698,27.36C14.614,27.36 16.978,25.028 16.978,22.152C16.978,19.275 14.614,16.943 11.698,16.943C8.782,16.943 6.418,19.275 6.418,22.152C6.418,25.028 8.782,27.36 11.698,27.36Z" fill="#F2BFE4"/>
<path d="M11.698,27.2C14.614,27.2 16.978,24.868 16.978,21.992C16.978,19.115 14.614,16.783 11.698,16.783C8.782,16.783 6.418,19.115 6.418,21.992C6.418,24.868 8.782,27.2 11.698,27.2Z" fill="#F2C0E4"/>
<path d="M11.698,27.041C14.614,27.041 16.978,24.709 16.978,21.832C16.978,18.955 14.614,16.623 11.698,16.623C8.782,16.623 6.418,18.955 6.418,21.832C6.418,24.709 8.782,27.041 11.698,27.041Z" fill="#F2C1E5"/>
<path d="M11.698,26.878C14.614,26.878 16.978,24.546 16.978,21.669C16.978,18.792 14.614,16.46 11.698,16.46C8.782,16.46 6.418,18.792 6.418,21.669C6.418,24.546 8.782,26.878 11.698,26.878Z" fill="#F3C2E5"/>
<path d="M11.698,26.718C14.614,26.718 16.978,24.386 16.978,21.509C16.978,18.633 14.614,16.301 11.698,16.301C8.782,16.301 6.418,18.633 6.418,21.509C6.418,24.386 8.782,26.718 11.698,26.718Z" fill="#F3C3E5"/>
<path d="M11.698,26.555C14.614,26.555 16.978,24.223 16.978,21.346C16.978,18.469 14.614,16.137 11.698,16.137C8.782,16.137 6.418,18.469 6.418,21.346C6.418,24.223 8.782,26.555 11.698,26.555Z" fill="#F3C4E6"/>
<path d="M11.698,26.395C14.614,26.395 16.978,24.063 16.978,21.186C16.978,18.31 14.614,15.978 11.698,15.978C8.782,15.978 6.418,18.31 6.418,21.186C6.418,24.063 8.782,26.395 11.698,26.395Z" fill="#F3C5E6"/>
<path d="M11.698,26.232C14.614,26.232 16.978,23.9 16.978,21.023C16.978,18.147 14.614,15.815 11.698,15.815C8.782,15.815 6.418,18.147 6.418,21.023C6.418,23.9 8.782,26.232 11.698,26.232Z" fill="#F3C6E7"/>
<path d="M11.698,26.072C14.614,26.072 16.978,23.74 16.978,20.863C16.978,17.987 14.614,15.655 11.698,15.655C8.782,15.655 6.418,17.987 6.418,20.863C6.418,23.74 8.782,26.072 11.698,26.072Z" fill="#F4C7E7"/>
<path d="M11.698,25.912C14.614,25.912 16.978,23.58 16.978,20.704C16.978,17.827 14.614,15.495 11.698,15.495C8.782,15.495 6.418,17.827 6.418,20.704C6.418,23.58 8.782,25.912 11.698,25.912Z" fill="#F4C8E8"/>
<path d="M11.698,25.749C14.614,25.749 16.978,23.417 16.978,20.541C16.978,17.664 14.614,15.332 11.698,15.332C8.782,15.332 6.418,17.664 6.418,20.541C6.418,23.417 8.782,25.749 11.698,25.749Z" fill="#F4C9E8"/>
<path d="M11.698,25.59C14.614,25.59 16.978,23.258 16.978,20.381C16.978,17.504 14.614,15.172 11.698,15.172C8.782,15.172 6.418,17.504 6.418,20.381C6.418,23.258 8.782,25.59 11.698,25.59Z" fill="#F4CAE8"/>
<path d="M11.698,25.427C14.614,25.427 16.978,23.095 16.978,20.218C16.978,17.341 14.614,15.009 11.698,15.009C8.782,15.009 6.418,17.341 6.418,20.218C6.418,23.095 8.782,25.427 11.698,25.427Z" fill="#F4CBE9"/>
<path d="M11.698,25.267C14.614,25.267 16.978,22.935 16.978,20.058C16.978,17.181 14.614,14.849 11.698,14.849C8.782,14.849 6.418,17.181 6.418,20.058C6.418,22.935 8.782,25.267 11.698,25.267Z" fill="#F5CCE9"/>
<path d="M11.698,25.107C14.614,25.107 16.978,22.775 16.978,19.898C16.978,17.021 14.614,14.689 11.698,14.689C8.782,14.689 6.418,17.021 6.418,19.898C6.418,22.775 8.782,25.107 11.698,25.107Z" fill="#F5CDEA"/>
<path d="M11.698,24.944C14.614,24.944 16.978,22.612 16.978,19.735C16.978,16.858 14.614,14.526 11.698,14.526C8.782,14.526 6.418,16.858 6.418,19.735C6.418,22.612 8.782,24.944 11.698,24.944Z" fill="#F5CEEA"/>
<path d="M11.698,24.784C14.614,24.784 16.978,22.452 16.978,19.575C16.978,16.698 14.614,14.366 11.698,14.366C8.782,14.366 6.418,16.698 6.418,19.575C6.418,22.452 8.782,24.784 11.698,24.784Z" fill="#F5CFEB"/>
<path d="M11.698,24.621C14.614,24.621 16.978,22.289 16.978,19.412C16.978,16.536 14.614,14.204 11.698,14.204C8.782,14.204 6.418,16.536 6.418,19.412C6.418,22.289 8.782,24.621 11.698,24.621Z" fill="#F5D0EB"/>
<path d="M11.698,24.461C14.614,24.461 16.978,22.129 16.978,19.253C16.978,16.376 14.614,14.044 11.698,14.044C8.782,14.044 6.418,16.376 6.418,19.253C6.418,22.129 8.782,24.461 11.698,24.461Z" fill="#F6D1EB"/>
<path d="M11.698,24.301C14.614,24.301 16.978,21.969 16.978,19.092C16.978,16.216 14.614,13.884 11.698,13.884C8.782,13.884 6.418,16.216 6.418,19.092C6.418,21.969 8.782,24.301 11.698,24.301Z" fill="#F6D2EC"/>
<path d="M11.698,24.138C14.614,24.138 16.978,21.806 16.978,18.93C16.978,16.053 14.614,13.721 11.698,13.721C8.782,13.721 6.418,16.053 6.418,18.93C6.418,21.806 8.782,24.138 11.698,24.138Z" fill="#F6D3EC"/>
<path d="M11.698,23.978C14.614,23.978 16.978,21.646 16.978,18.77C16.978,15.893 14.614,13.561 11.698,13.561C8.782,13.561 6.418,15.893 6.418,18.77C6.418,21.646 8.782,23.978 11.698,23.978Z" fill="#F6D4ED"/>
<path d="M11.698,23.815C14.614,23.815 16.978,21.483 16.978,18.607C16.978,15.73 14.614,13.398 11.698,13.398C8.782,13.398 6.418,15.73 6.418,18.607C6.418,21.483 8.782,23.815 11.698,23.815Z" fill="#F6D5ED"/>
<path d="M11.698,23.656C14.614,23.656 16.978,21.324 16.978,18.447C16.978,15.57 14.614,13.238 11.698,13.238C8.782,13.238 6.418,15.57 6.418,18.447C6.418,21.324 8.782,23.656 11.698,23.656Z" fill="#F7D6EE"/>
<path d="M11.698,23.496C14.614,23.496 16.978,21.164 16.978,18.287C16.978,15.41 14.614,13.078 11.698,13.078C8.782,13.078 6.418,15.41 6.418,18.287C6.418,21.164 8.782,23.496 11.698,23.496Z" fill="#F7D7EE"/>
<path d="M11.698,23.333C14.614,23.333 16.978,21.001 16.978,18.124C16.978,15.248 14.614,12.916 11.698,12.916C8.782,12.916 6.418,15.248 6.418,18.124C6.418,21.001 8.782,23.333 11.698,23.333Z" fill="#F7D8EE"/>
<path d="M11.698,23.173C14.614,23.173 16.978,20.841 16.978,17.964C16.978,15.087 14.614,12.755 11.698,12.755C8.782,12.755 6.418,15.087 6.418,17.964C6.418,20.841 8.782,23.173 11.698,23.173Z" fill="#F7D9EF"/>
<path d="M11.698,23.01C14.614,23.01 16.978,20.678 16.978,17.801C16.978,14.925 14.614,12.593 11.698,12.593C8.782,12.593 6.418,14.925 6.418,17.801C6.418,20.678 8.782,23.01 11.698,23.01Z" fill="#F7DAEF"/>
<path d="M11.698,22.85C14.614,22.85 16.978,20.518 16.978,17.641C16.978,14.765 14.614,12.433 11.698,12.433C8.782,12.433 6.418,14.765 6.418,17.641C6.418,20.518 8.782,22.85 11.698,22.85Z" fill="#F8DBF0"/>
<path d="M11.698,22.69C14.614,22.69 16.978,20.358 16.978,17.481C16.978,14.605 14.614,12.273 11.698,12.273C8.782,12.273 6.418,14.605 6.418,17.481C6.418,20.358 8.782,22.69 11.698,22.69Z" fill="#F8DCF0"/>
<path d="M11.698,22.527C14.614,22.527 16.978,20.195 16.978,17.319C16.978,14.442 14.614,12.11 11.698,12.11C8.782,12.11 6.418,14.442 6.418,17.319C6.418,20.195 8.782,22.527 11.698,22.527Z" fill="#F8DDF1"/>
<path d="M11.698,22.367C14.614,22.367 16.978,20.035 16.978,17.158C16.978,14.282 14.614,11.95 11.698,11.95C8.782,11.95 6.418,14.282 6.418,17.158C6.418,20.035 8.782,22.367 11.698,22.367Z" fill="#F8DEF1"/>
<path d="M11.698,22.204C14.614,22.204 16.978,19.872 16.978,16.996C16.978,14.119 14.614,11.787 11.698,11.787C8.782,11.787 6.418,14.119 6.418,16.996C6.418,19.872 8.782,22.204 11.698,22.204Z" fill="#F9DFF1"/>
<path d="M11.698,22.044C14.614,22.044 16.978,19.712 16.978,16.836C16.978,13.959 14.614,11.627 11.698,11.627C8.782,11.627 6.418,13.959 6.418,16.836C6.418,19.712 8.782,22.044 11.698,22.044Z" fill="#F9E0F2"/>
<path d="M11.698,21.884C14.614,21.884 16.978,19.552 16.978,16.676C16.978,13.799 14.614,11.467 11.698,11.467C8.782,11.467 6.418,13.799 6.418,16.676C6.418,19.552 8.782,21.884 11.698,21.884Z" fill="#F9E1F2"/>
<path d="M11.698,21.721C14.614,21.721 16.978,19.389 16.978,16.513C16.978,13.636 14.614,11.304 11.698,11.304C8.782,11.304 6.418,13.636 6.418,16.513C6.418,19.389 8.782,21.721 11.698,21.721Z" fill="#F9E2F3"/>
<path d="M11.698,21.561C14.614,21.561 16.978,19.229 16.978,16.353C16.978,13.476 14.614,11.144 11.698,11.144C8.782,11.144 6.418,13.476 6.418,16.353C6.418,19.229 8.782,21.561 11.698,21.561Z" fill="#F9E3F3"/>
<path d="M11.698,21.398C14.614,21.398 16.978,19.066 16.978,16.19C16.978,13.313 14.614,10.981 11.698,10.981C8.782,10.981 6.418,13.313 6.418,16.19C6.418,19.066 8.782,21.398 11.698,21.398Z" fill="#FAE4F4"/>
<path d="M11.698,21.239C14.614,21.239 16.978,18.907 16.978,16.03C16.978,13.154 14.614,10.822 11.698,10.822C8.782,10.822 6.418,13.154 6.418,16.03C6.418,18.907 8.782,21.239 11.698,21.239Z" fill="#FAE5F4"/>
<path d="M11.698,21.076C14.614,21.076 16.978,18.744 16.978,15.867C16.978,12.99 14.614,10.658 11.698,10.658C8.782,10.658 6.418,12.99 6.418,15.867C6.418,18.744 8.782,21.076 11.698,21.076Z" fill="#FAE6F4"/>
<path d="M11.698,20.916C14.614,20.916 16.978,18.584 16.978,15.707C16.978,12.831 14.614,10.499 11.698,10.499C8.782,10.499 6.418,12.831 6.418,15.707C6.418,18.584 8.782,20.916 11.698,20.916Z" fill="#FAE7F5"/>
<path d="M11.698,20.756C14.614,20.756 16.978,18.424 16.978,15.547C16.978,12.671 14.614,10.339 11.698,10.339C8.782,10.339 6.418,12.671 6.418,15.547C6.418,18.424 8.782,20.756 11.698,20.756Z" fill="#FAE8F5"/>
<path d="M11.698,20.593C14.614,20.593 16.978,18.261 16.978,15.384C16.978,12.508 14.614,10.176 11.698,10.176C8.782,10.176 6.418,12.508 6.418,15.384C6.418,18.261 8.782,20.593 11.698,20.593Z" fill="#FBE9F6"/>
<path d="M11.698,20.433C14.614,20.433 16.978,18.101 16.978,15.224C16.978,12.348 14.614,10.016 11.698,10.016C8.782,10.016 6.418,12.348 6.418,15.224C6.418,18.101 8.782,20.433 11.698,20.433Z" fill="#FBEAF6"/>
<path d="M11.698,20.27C14.614,20.27 16.978,17.938 16.978,15.062C16.978,12.185 14.614,9.853 11.698,9.853C8.782,9.853 6.418,12.185 6.418,15.062C6.418,17.938 8.782,20.27 11.698,20.27Z" fill="#FBEBF6"/>
<path d="M11.698,20.11C14.614,20.11 16.978,17.778 16.978,14.902C16.978,12.025 14.614,9.693 11.698,9.693C8.782,9.693 6.418,12.025 6.418,14.902C6.418,17.778 8.782,20.11 11.698,20.11Z" fill="#FBECF7"/>
<path d="M11.698,19.95C14.614,19.95 16.978,17.618 16.978,14.742C16.978,11.865 14.614,9.533 11.698,9.533C8.782,9.533 6.418,11.865 6.418,14.742C6.418,17.618 8.782,19.95 11.698,19.95Z" fill="#FBEDF7"/>
<path d="M11.698,19.788C14.614,19.788 16.978,17.456 16.978,14.579C16.978,11.702 14.614,9.37 11.698,9.37C8.782,9.37 6.418,11.702 6.418,14.579C6.418,17.456 8.782,19.788 11.698,19.788Z" fill="#FCEEF8"/>
<path d="M11.698,19.628C14.614,19.628 16.978,17.296 16.978,14.419C16.978,11.542 14.614,9.21 11.698,9.21C8.782,9.21 6.418,11.542 6.418,14.419C6.418,17.296 8.782,19.628 11.698,19.628Z" fill="#FCEFF8"/>
<path d="M11.698,19.465C14.614,19.465 16.978,17.133 16.978,14.256C16.978,11.379 14.614,9.047 11.698,9.047C8.782,9.047 6.418,11.379 6.418,14.256C6.418,17.133 8.782,19.465 11.698,19.465Z" fill="#FCF0F9"/>
<path d="M11.698,19.305C14.614,19.305 16.978,16.973 16.978,14.096C16.978,11.219 14.614,8.887 11.698,8.887C8.782,8.887 6.418,11.219 6.418,14.096C6.418,16.973 8.782,19.305 11.698,19.305Z" fill="#FCF1F9"/>
<path d="M11.698,19.145C14.614,19.145 16.978,16.813 16.978,13.936C16.978,11.06 14.614,8.728 11.698,8.728C8.782,8.728 6.418,11.06 6.418,13.936C6.418,16.813 8.782,19.145 11.698,19.145Z" fill="#FCF2F9"/>
<path d="M11.698,18.982C14.614,18.982 16.978,16.65 16.978,13.773C16.978,10.896 14.614,8.564 11.698,8.564C8.782,8.564 6.418,10.896 6.418,13.773C6.418,16.65 8.782,18.982 11.698,18.982Z" fill="#FDF3FA"/>
<path d="M11.698,18.822C14.614,18.822 16.978,16.49 16.978,13.613C16.978,10.737 14.614,8.405 11.698,8.405C8.782,8.405 6.418,10.737 6.418,13.613C6.418,16.49 8.782,18.822 11.698,18.822Z" fill="#FDF4FA"/>
<path d="M11.698,18.659C14.614,18.659 16.978,16.327 16.978,13.451C16.978,10.574 14.614,8.242 11.698,8.242C8.782,8.242 6.418,10.574 6.418,13.451C6.418,16.327 8.782,18.659 11.698,18.659Z" fill="#FDF5FB"/>
<path d="M11.698,18.499C14.614,18.499 16.978,16.167 16.978,13.291C16.978,10.414 14.614,8.082 11.698,8.082C8.782,8.082 6.418,10.414 6.418,13.291C6.418,16.167 8.782,18.499 11.698,18.499Z" fill="#FDF6FB"/>
<path d="M11.698,18.339C14.614,18.339 16.978,16.007 16.978,13.131C16.978,10.254 14.614,7.922 11.698,7.922C8.782,7.922 6.418,10.254 6.418,13.131C6.418,16.007 8.782,18.339 11.698,18.339Z" fill="#FDF7FC"/>
<path d="M11.698,18.176C14.614,18.176 16.978,15.844 16.978,12.968C16.978,10.091 14.614,7.759 11.698,7.759C8.782,7.759 6.418,10.091 6.418,12.968C6.418,15.844 8.782,18.176 11.698,18.176Z" fill="#FEF8FC"/>
<path d="M11.698,18.016C14.614,18.016 16.978,15.684 16.978,12.808C16.978,9.931 14.614,7.599 11.698,7.599C8.782,7.599 6.418,9.931 6.418,12.808C6.418,15.684 8.782,18.016 11.698,18.016Z" fill="#FEF9FC"/>
<path d="M11.698,17.854C14.614,17.854 16.978,15.522 16.978,12.645C16.978,9.769 14.614,7.437 11.698,7.437C8.782,7.437 6.418,9.769 6.418,12.645C6.418,15.522 8.782,17.854 11.698,17.854Z" fill="#FEFAFD"/>
<path d="M11.698,17.694C14.614,17.694 16.978,15.362 16.978,12.485C16.978,9.608 14.614,7.276 11.698,7.276C8.782,7.276 6.418,9.608 6.418,12.485C6.418,15.362 8.782,17.694 11.698,17.694Z" fill="#FEFBFD"/>
<path d="M11.698,17.534C14.614,17.534 16.978,15.202 16.978,12.325C16.978,9.448 14.614,7.116 11.698,7.116C8.782,7.116 6.418,9.448 6.418,12.325C6.418,15.202 8.782,17.534 11.698,17.534Z" fill="#FEFCFE"/>
<path d="M11.698,17.371C14.614,17.371 16.978,15.039 16.978,12.162C16.978,9.286 14.614,6.954 11.698,6.954C8.782,6.954 6.418,9.286 6.418,12.162C6.418,15.039 8.782,17.371 11.698,17.371Z" fill="#FFFDFE"/>
<path d="M11.698,17.211C14.614,17.211 16.978,14.879 16.978,12.002C16.978,9.125 14.614,6.793 11.698,6.793C8.782,6.793 6.418,9.125 6.418,12.002C6.418,14.879 8.782,17.211 11.698,17.211Z" fill="#FFFEFF"/>
<path d="M11.698,17.048C14.614,17.048 16.979,14.716 16.979,11.839C16.979,8.963 14.614,6.631 11.698,6.631C8.782,6.631 6.418,8.963 6.418,11.839C6.418,14.716 8.782,17.048 11.698,17.048Z" fill="#FFFFFF"/>
<path d="M11.843,17.126C14.759,17.126 17.123,14.795 17.123,11.918C17.123,9.041 14.759,6.709 11.843,6.709C8.926,6.709 6.562,9.041 6.562,11.918C6.562,14.795 8.926,17.126 11.843,17.126Z" fill="#FFFFFE"/>
<path d="M11.99,17.202C14.906,17.202 17.27,14.87 17.27,11.993C17.27,9.117 14.906,6.785 11.99,6.785C9.074,6.785 6.71,9.117 6.71,11.993C6.71,14.87 9.074,17.202 11.99,17.202Z" fill="#FEFFFD"/>
<path d="M12.135,17.281C15.051,17.281 17.415,14.949 17.415,12.072C17.415,9.195 15.051,6.863 12.135,6.863C9.218,6.863 6.854,9.195 6.854,12.072C6.854,14.949 9.218,17.281 12.135,17.281Z" fill="#FEFFFC"/>
<path d="M12.279,17.356C15.195,17.356 17.559,15.024 17.559,12.147C17.559,9.271 15.195,6.939 12.279,6.939C9.363,6.939 6.999,9.271 6.999,12.147C6.999,15.024 9.363,17.356 12.279,17.356Z" fill="#FDFFFB"/>
<path d="M12.424,17.435C15.34,17.435 17.704,15.103 17.704,12.226C17.704,9.349 15.34,7.017 12.424,7.017C9.507,7.017 7.143,9.349 7.143,12.226C7.143,15.103 9.507,17.435 12.424,17.435Z" fill="#FDFFFA"/>
<path d="M12.568,17.51C15.484,17.51 17.849,15.178 17.849,12.301C17.849,9.425 15.484,7.093 12.568,7.093C9.652,7.093 7.288,9.425 7.288,12.301C7.288,15.178 9.652,17.51 12.568,17.51Z" fill="#FCFFF9"/>
<path d="M12.712,17.589C15.629,17.589 17.993,15.257 17.993,12.38C17.993,9.504 15.629,7.172 12.712,7.172C9.796,7.172 7.432,9.504 7.432,12.38C7.432,15.257 9.796,17.589 12.712,17.589Z" fill="#FCFFF8"/>
<path d="M12.857,17.665C15.773,17.665 18.137,15.333 18.137,12.456C18.137,9.579 15.773,7.247 12.857,7.247C9.941,7.247 7.577,9.579 7.577,12.456C7.577,15.333 9.941,17.665 12.857,17.665Z" fill="#FBFEF7"/>
<path d="M13.004,17.74C15.92,17.74 18.284,15.408 18.284,12.531C18.284,9.655 15.92,7.323 13.004,7.323C10.088,7.323 7.724,9.655 7.724,12.531C7.724,15.408 10.088,17.74 13.004,17.74Z" fill="#FBFEF6"/>
<path d="M13.149,17.819C16.065,17.819 18.429,15.487 18.429,12.61C18.429,9.733 16.065,7.401 13.149,7.401C10.232,7.401 7.868,9.733 7.868,12.61C7.868,15.487 10.232,17.819 13.149,17.819Z" fill="#FAFEF5"/>
<path d="M13.293,17.894C16.209,17.894 18.573,15.562 18.573,12.685C18.573,9.809 16.209,7.477 13.293,7.477C10.377,7.477 8.013,9.809 8.013,12.685C8.013,15.562 10.377,17.894 13.293,17.894Z" fill="#FAFEF4"/>
<path d="M13.438,17.973C16.354,17.973 18.718,15.641 18.718,12.764C18.718,9.887 16.354,7.555 13.438,7.555C10.521,7.555 8.157,9.887 8.157,12.764C8.157,15.641 10.521,17.973 13.438,17.973Z" fill="#F9FEF3"/>
<path d="M13.582,18.048C16.498,18.048 18.862,15.716 18.862,12.84C18.862,9.963 16.498,7.631 13.582,7.631C10.666,7.631 8.302,9.963 8.302,12.84C8.302,15.716 10.666,18.048 13.582,18.048Z" fill="#F9FEF2"/>
<path d="M13.727,18.127C16.643,18.127 19.007,15.795 19.007,12.918C19.007,10.041 16.643,7.709 13.727,7.709C10.81,7.709 8.446,10.041 8.446,12.918C8.446,15.795 10.81,18.127 13.727,18.127Z" fill="#F8FEF1"/>
<path d="M13.871,18.202C16.787,18.202 19.151,15.87 19.151,12.994C19.151,10.117 16.787,7.785 13.871,7.785C10.955,7.785 8.591,10.117 8.591,12.994C8.591,15.87 10.955,18.202 13.871,18.202Z" fill="#F8FEF0"/>
<path d="M14.019,18.281C16.935,18.281 19.299,15.949 19.299,13.072C19.299,10.196 16.935,7.864 14.019,7.864C11.102,7.864 8.738,10.196 8.738,13.072C8.738,15.949 11.102,18.281 14.019,18.281Z" fill="#F8FEEF"/>
<path d="M14.163,18.357C17.079,18.357 19.443,16.025 19.443,13.148C19.443,10.271 17.079,7.939 14.163,7.939C11.247,7.939 8.883,10.271 8.883,13.148C8.883,16.025 11.247,18.357 14.163,18.357Z" fill="#F7FEEE"/>
<path d="M14.308,18.432C17.224,18.432 19.588,16.1 19.588,13.224C19.588,10.347 17.224,8.015 14.308,8.015C11.391,8.015 9.027,10.347 9.027,13.224C9.027,16.1 11.391,18.432 14.308,18.432Z" fill="#F7FEED"/>
<path d="M14.452,18.511C17.368,18.511 19.732,16.179 19.732,13.302C19.732,10.426 17.368,8.094 14.452,8.094C11.536,8.094 9.172,10.426 9.172,13.302C9.172,16.179 11.536,18.511 14.452,18.511Z" fill="#F6FEEC"/>
<path d="M14.597,18.586C17.513,18.586 19.877,16.254 19.877,13.378C19.877,10.501 17.513,8.169 14.597,8.169C11.68,8.169 9.316,10.501 9.316,13.378C9.316,16.254 11.68,18.586 14.597,18.586Z" fill="#F6FEEB"/>
<path d="M14.741,18.665C17.657,18.665 20.021,16.333 20.021,13.456C20.021,10.58 17.657,8.248 14.741,8.248C11.825,8.248 9.461,10.58 9.461,13.456C9.461,16.333 11.825,18.665 14.741,18.665Z" fill="#F5FEEA"/>
<path d="M14.885,18.741C17.802,18.741 20.166,16.409 20.166,13.532C20.166,10.655 17.802,8.323 14.885,8.323C11.969,8.323 9.605,10.655 9.605,13.532C9.605,16.409 11.969,18.741 14.885,18.741Z" fill="#F5FEE9"/>
<path d="M15.033,18.819C17.949,18.819 20.313,16.487 20.313,13.61C20.313,10.734 17.949,8.402 15.033,8.402C12.116,8.402 9.752,10.734 9.752,13.61C9.752,16.487 12.116,18.819 15.033,18.819Z" fill="#F4FEE8"/>
<path d="M15.177,18.895C18.093,18.895 20.457,16.563 20.457,13.686C20.457,10.809 18.093,8.477 15.177,8.477C12.261,8.477 9.897,10.809 9.897,13.686C9.897,16.563 12.261,18.895 15.177,18.895Z" fill="#F4FDE7"/>
<path d="M15.322,18.973C18.238,18.973 20.602,16.641 20.602,13.765C20.602,10.888 18.238,8.556 15.322,8.556C12.405,8.556 10.041,10.888 10.041,13.765C10.041,16.641 12.405,18.973 15.322,18.973Z" fill="#F3FDE6"/>
<path d="M15.466,19.049C18.382,19.049 20.746,16.717 20.746,13.84C20.746,10.964 18.382,8.632 15.466,8.632C12.55,8.632 10.186,10.964 10.186,13.84C10.186,16.717 12.55,19.049 15.466,19.049Z" fill="#F3FDE5"/>
<path d="M15.61,19.127C18.527,19.127 20.891,16.795 20.891,13.919C20.891,11.042 18.527,8.71 15.61,8.71C12.694,8.71 10.33,11.042 10.33,13.919C10.33,16.795 12.694,19.127 15.61,19.127Z" fill="#F2FDE4"/>
<path d="M15.755,19.203C18.671,19.203 21.035,16.871 21.035,13.995C21.035,11.118 18.671,8.786 15.755,8.786C12.838,8.786 10.474,11.118 10.474,13.995C10.474,16.871 12.838,19.203 15.755,19.203Z" fill="#F2FDE3"/>
<path d="M15.899,19.279C18.815,19.279 21.179,16.947 21.179,14.07C21.179,11.193 18.815,8.861 15.899,8.861C12.983,8.861 10.619,11.193 10.619,14.07C10.619,16.947 12.983,19.279 15.899,19.279Z" fill="#F2FDE2"/>
<path d="M16.047,19.357C18.963,19.357 21.327,17.025 21.327,14.149C21.327,11.272 18.963,8.94 16.047,8.94C13.131,8.94 10.767,11.272 10.767,14.149C10.767,17.025 13.131,19.357 16.047,19.357Z" fill="#F1FDE1"/>
<path d="M16.191,19.433C19.108,19.433 21.472,17.101 21.472,14.224C21.472,11.347 19.108,9.015 16.191,9.015C13.275,9.015 10.911,11.347 10.911,14.224C10.911,17.101 13.275,19.433 16.191,19.433Z" fill="#F1FDE0"/>
<path d="M16.336,19.511C19.252,19.511 21.616,17.179 21.616,14.303C21.616,11.426 19.252,9.094 16.336,9.094C13.42,9.094 11.056,11.426 11.056,14.303C11.056,17.179 13.42,19.511 16.336,19.511Z" fill="#F0FDDF"/>
<path d="M16.48,19.587C19.397,19.587 21.761,17.255 21.761,14.378C21.761,11.502 19.397,9.17 16.48,9.17C13.564,9.17 11.2,11.502 11.2,14.378C11.2,17.255 13.564,19.587 16.48,19.587Z" fill="#F0FDDE"/>
<path d="M16.625,19.665C19.541,19.665 21.905,17.333 21.905,14.457C21.905,11.58 19.541,9.248 16.625,9.248C13.709,9.248 11.345,11.58 11.345,14.457C11.345,17.333 13.709,19.665 16.625,19.665Z" fill="#EFFDDD"/>
<path d="M16.769,19.741C19.686,19.741 22.05,17.409 22.05,14.532C22.05,11.656 19.686,9.324 16.769,9.324C13.853,9.324 11.489,11.656 11.489,14.532C11.489,17.409 13.853,19.741 16.769,19.741Z" fill="#EFFDDC"/>
<path d="M16.914,19.819C19.83,19.819 22.194,17.487 22.194,14.611C22.194,11.734 19.83,9.402 16.914,9.402C13.997,9.402 11.633,11.734 11.633,14.611C11.633,17.487 13.997,19.819 16.914,19.819Z" fill="#EEFDDB"/>
<path d="M17.061,19.895C19.977,19.895 22.341,17.563 22.341,14.687C22.341,11.81 19.977,9.478 17.061,9.478C14.145,9.478 11.781,11.81 11.781,14.687C11.781,17.563 14.145,19.895 17.061,19.895Z" fill="#EEFDDA"/>
<path d="M17.206,19.974C20.122,19.974 22.486,17.642 22.486,14.765C22.486,11.888 20.122,9.556 17.206,9.556C14.289,9.556 11.925,11.888 11.925,14.765C11.925,17.642 14.289,19.974 17.206,19.974Z" fill="#EDFDD9"/>
<path d="M17.35,20.049C20.266,20.049 22.63,17.717 22.63,14.84C22.63,11.964 20.266,9.632 17.35,9.632C14.434,9.632 12.07,11.964 12.07,14.84C12.07,17.717 14.434,20.049 17.35,20.049Z" fill="#EDFCD8"/>
<path d="M17.494,20.125C20.411,20.125 22.775,17.793 22.775,14.916C22.775,12.039 20.411,9.708 17.494,9.708C14.578,9.708 12.214,12.039 12.214,14.916C12.214,17.793 14.578,20.125 17.494,20.125Z" fill="#ECFCD7"/>
<path d="M17.639,20.203C20.555,20.203 22.919,17.871 22.919,14.995C22.919,12.118 20.555,9.786 17.639,9.786C14.723,9.786 12.358,12.118 12.358,14.995C12.358,17.871 14.723,20.203 17.639,20.203Z" fill="#ECFCD6"/>
<path d="M17.783,20.279C20.7,20.279 23.064,17.947 23.064,15.07C23.064,12.194 20.7,9.862 17.783,9.862C14.867,9.862 12.503,12.194 12.503,15.07C12.503,17.947 14.867,20.279 17.783,20.279Z" fill="#EBFCD5"/>
<path d="M17.928,20.357C20.844,20.357 23.208,18.025 23.208,15.149C23.208,12.272 20.844,9.94 17.928,9.94C15.012,9.94 12.648,12.272 12.648,15.149C12.648,18.025 15.012,20.357 17.928,20.357Z" fill="#EBFCD4"/>
<path d="M18.075,20.433C20.991,20.433 23.355,18.101 23.355,15.224C23.355,12.348 20.991,10.016 18.075,10.016C15.159,10.016 12.795,12.348 12.795,15.224C12.795,18.101 15.159,20.433 18.075,20.433Z" fill="#EBFCD3"/>
<path d="M18.22,20.511C21.136,20.511 23.5,18.18 23.5,15.303C23.5,12.426 21.136,10.094 18.22,10.094C15.303,10.094 12.939,12.426 12.939,15.303C12.939,18.18 15.303,20.511 18.22,20.511Z" fill="#EAFCD2"/>
<path d="M18.364,20.587C21.28,20.587 23.644,18.255 23.644,15.378C23.644,12.502 21.28,10.17 18.364,10.17C15.448,10.17 13.084,12.502 13.084,15.378C13.084,18.255 15.448,20.587 18.364,20.587Z" fill="#EAFCD1"/>
<path d="M18.509,20.666C21.425,20.666 23.789,18.334 23.789,15.457C23.789,12.58 21.425,10.248 18.509,10.248C15.592,10.248 13.228,12.58 13.228,15.457C13.228,18.334 15.592,20.666 18.509,20.666Z" fill="#E9FCD0"/>
<path d="M18.653,20.741C21.569,20.741 23.933,18.409 23.933,15.532C23.933,12.656 21.569,10.324 18.653,10.324C15.737,10.324 13.373,12.656 13.373,15.532C13.373,18.409 15.737,20.741 18.653,20.741Z" fill="#E9FCCF"/>
<path d="M18.798,20.817C21.714,20.817 24.078,18.485 24.078,15.608C24.078,12.732 21.714,10.4 18.798,10.4C15.881,10.4 13.517,12.732 13.517,15.608C13.517,18.485 15.881,20.817 18.798,20.817Z" fill="#E8FCCE"/>
<path d="M18.942,20.896C21.858,20.896 24.222,18.564 24.222,15.687C24.222,12.81 21.858,10.478 18.942,10.478C16.026,10.478 13.662,12.81 13.662,15.687C13.662,18.564 16.026,20.896 18.942,20.896Z" fill="#E8FCCD"/>
<path d="M19.09,20.971C22.006,20.971 24.37,18.639 24.37,15.762C24.37,12.886 22.006,10.554 19.09,10.554C16.174,10.554 13.81,12.886 13.81,15.762C13.81,18.639 16.174,20.971 19.09,20.971Z" fill="#E7FCCC"/>
<path d="M19.234,21.05C22.15,21.05 24.514,18.718 24.514,15.841C24.514,12.964 22.15,10.632 19.234,10.632C16.318,10.632 13.954,12.964 13.954,15.841C13.954,18.718 16.318,21.05 19.234,21.05Z" fill="#E7FCCB"/>
<path d="M19.379,21.125C22.295,21.125 24.659,18.793 24.659,15.916C24.659,13.04 22.295,10.708 19.379,10.708C16.462,10.708 14.098,13.04 14.098,15.916C14.098,18.793 16.462,21.125 19.379,21.125Z" fill="#E6FCCA"/>
<path d="M19.523,21.204C22.439,21.204 24.803,18.872 24.803,15.995C24.803,13.118 22.439,10.786 19.523,10.786C16.607,10.786 14.243,13.118 14.243,15.995C14.243,18.872 16.607,21.204 19.523,21.204Z" fill="#E6FCC9"/>
<path d="M19.667,21.279C22.584,21.279 24.948,18.947 24.948,16.071C24.948,13.194 22.584,10.862 19.667,10.862C16.751,10.862 14.387,13.194 14.387,16.071C14.387,18.947 16.751,21.279 19.667,21.279Z" fill="#E5FBC8"/>
<path d="M19.812,21.358C22.728,21.358 25.092,19.026 25.092,16.149C25.092,13.272 22.728,10.94 19.812,10.94C16.896,10.94 14.532,13.272 14.532,16.149C14.532,19.026 16.896,21.358 19.812,21.358Z" fill="#E5FBC7"/>
<path d="M19.956,21.433C22.873,21.433 25.237,19.101 25.237,16.225C25.237,13.348 22.873,11.016 19.956,11.016C17.04,11.016 14.676,13.348 14.676,16.225C14.676,19.101 17.04,21.433 19.956,21.433Z" fill="#E5FBC6"/>
<path d="M20.104,21.512C23.02,21.512 25.384,19.18 25.384,16.303C25.384,13.426 23.02,11.094 20.104,11.094C17.187,11.094 14.823,13.426 14.823,16.303C14.823,19.18 17.187,21.512 20.104,21.512Z" fill="#E4FBC5"/>
<path d="M20.248,21.588C23.164,21.588 25.528,19.256 25.528,16.379C25.528,13.502 23.164,11.17 20.248,11.17C17.332,11.17 14.968,13.502 14.968,16.379C14.968,19.256 17.332,21.588 20.248,21.588Z" fill="#E4FBC4"/>
<path d="M20.392,21.663C23.309,21.663 25.673,19.331 25.673,16.455C25.673,13.578 23.309,11.246 20.392,11.246C17.476,11.246 15.112,13.578 15.112,16.455C15.112,19.331 17.476,21.663 20.392,21.663Z" fill="#E3FBC3"/>
<path d="M20.537,21.742C23.453,21.742 25.817,19.41 25.817,16.533C25.817,13.657 23.453,11.325 20.537,11.325C17.621,11.325 15.256,13.657 15.256,16.533C15.256,19.41 17.621,21.742 20.537,21.742Z" fill="#E3FBC2"/>
<path d="M20.681,21.817C23.597,21.817 25.962,19.485 25.962,16.609C25.962,13.732 23.597,11.4 20.681,11.4C17.765,11.4 15.401,13.732 15.401,16.609C15.401,19.485 17.765,21.817 20.681,21.817Z" fill="#E2FBC1"/>
<path d="M20.826,21.896C23.742,21.896 26.106,19.564 26.106,16.687C26.106,13.811 23.742,11.479 20.826,11.479C17.91,11.479 15.545,13.811 15.545,16.687C15.545,19.564 17.91,21.896 20.826,21.896Z" fill="#E2FBC0"/>
<path d="M20.97,21.971C23.887,21.971 26.251,19.639 26.251,16.763C26.251,13.886 23.887,11.554 20.97,11.554C18.054,11.554 15.69,13.886 15.69,16.763C15.69,19.639 18.054,21.971 20.97,21.971Z" fill="#E1FBBF"/>
<path d="M21.118,22.05C24.034,22.05 26.398,19.718 26.398,16.841C26.398,13.965 24.034,11.633 21.118,11.633C18.202,11.633 15.837,13.965 15.837,16.841C15.837,19.718 18.202,22.05 21.118,22.05Z" fill="#E1FBBE"/>
<path d="M21.262,22.126C24.178,22.126 26.543,19.794 26.543,16.917C26.543,14.04 24.178,11.708 21.262,11.708C18.346,11.708 15.982,14.04 15.982,16.917C15.982,19.794 18.346,22.126 21.262,22.126Z" fill="#E0FBBD"/>
<path d="M21.407,22.204C24.323,22.204 26.687,19.872 26.687,16.996C26.687,14.119 24.323,11.787 21.407,11.787C18.491,11.787 16.126,14.119 16.126,16.996C16.126,19.872 18.491,22.204 21.407,22.204Z" fill="#E0FBBC"/>
<path d="M21.551,22.28C24.468,22.28 26.832,19.948 26.832,17.071C26.832,14.195 24.468,11.863 21.551,11.863C18.635,11.863 16.271,14.195 16.271,17.071C16.271,19.948 18.635,22.28 21.551,22.28Z" fill="#DFFBBB"/>
<path d="M21.696,22.358C24.612,22.358 26.976,20.026 26.976,17.15C26.976,14.273 24.612,11.941 21.696,11.941C18.78,11.941 16.416,14.273 16.416,17.15C16.416,20.026 18.78,22.358 21.696,22.358Z" fill="#DFFBBA"/>
<path d="M21.84,22.434C24.757,22.434 27.121,20.102 27.121,17.225C27.121,14.349 24.757,12.017 21.84,12.017C18.924,12.017 16.56,14.349 16.56,17.225C16.56,20.102 18.924,22.434 21.84,22.434Z" fill="#DEFAB9"/>
<path d="M21.985,22.51C24.901,22.51 27.265,20.178 27.265,17.301C27.265,14.424 24.901,12.092 21.985,12.092C19.069,12.092 16.705,14.424 16.705,17.301C16.705,20.178 19.069,22.51 21.985,22.51Z" fill="#DEFAB8"/>
<path d="M22.132,22.588C25.048,22.588 27.412,20.256 27.412,17.38C27.412,14.503 25.048,12.171 22.132,12.171C19.215,12.171 16.851,14.503 16.851,17.38C16.851,20.256 19.215,22.588 22.132,22.588Z" fill="#DEFAB7"/>
<path d="M22.276,22.664C25.192,22.664 27.556,20.332 27.556,17.455C27.556,14.578 25.192,12.246 22.276,12.246C19.36,12.246 16.996,14.578 16.996,17.455C16.996,20.332 19.36,22.664 22.276,22.664Z" fill="#DDFAB6"/>
<path d="M22.421,22.742C25.337,22.742 27.701,20.41 27.701,17.534C27.701,14.657 25.337,12.325 22.421,12.325C19.504,12.325 17.14,14.657 17.14,17.534C17.14,20.41 19.504,22.742 22.421,22.742Z" fill="#DDFAB5"/>
<path d="M22.565,22.818C25.481,22.818 27.845,20.486 27.845,17.609C27.845,14.733 25.481,12.401 22.565,12.401C19.649,12.401 17.285,14.733 17.285,17.609C17.285,20.486 19.649,22.818 22.565,22.818Z" fill="#DCFAB4"/>
<path d="M22.71,22.896C25.626,22.896 27.99,20.564 27.99,17.688C27.99,14.811 25.626,12.479 22.71,12.479C19.793,12.479 17.429,14.811 17.429,17.688C17.429,20.564 19.793,22.896 22.71,22.896Z" fill="#DCFAB3"/>
<path d="M22.854,22.972C25.77,22.972 28.135,20.64 28.135,17.763C28.135,14.887 25.77,12.555 22.854,12.555C19.938,12.555 17.574,14.887 17.574,17.763C17.574,20.64 19.938,22.972 22.854,22.972Z" fill="#DBFAB2"/>
<path d="M22.998,23.05C25.915,23.05 28.279,20.718 28.279,17.842C28.279,14.965 25.915,12.633 22.998,12.633C20.082,12.633 17.718,14.965 17.718,17.842C17.718,20.718 20.082,23.05 22.998,23.05Z" fill="#DBFAB1"/>
<path d="M23.146,23.126C26.062,23.126 28.427,20.794 28.427,17.918C28.427,15.041 26.062,12.709 23.146,12.709C20.23,12.709 17.866,15.041 17.866,17.918C17.866,20.794 20.23,23.126 23.146,23.126Z" fill="#DAFAB0"/>
<path d="M23.291,23.201C26.207,23.201 28.571,20.869 28.571,17.993C28.571,15.116 26.207,12.784 23.291,12.784C20.375,12.784 18.01,15.116 18.01,17.993C18.01,20.869 20.375,23.201 23.291,23.201Z" fill="#DAFAAF"/>
<path d="M23.435,23.28C26.351,23.28 28.716,20.948 28.716,18.072C28.716,15.195 26.351,12.863 23.435,12.863C20.519,12.863 18.155,15.195 18.155,18.072C18.155,20.948 20.519,23.28 23.435,23.28Z" fill="#D9FAAE"/>
<path d="M23.58,23.356C26.496,23.356 28.86,21.024 28.86,18.147C28.86,15.271 26.496,12.939 23.58,12.939C20.664,12.939 18.299,15.271 18.299,18.147C18.299,21.024 20.664,23.356 23.58,23.356Z" fill="#D9FAAD"/>
<path d="M23.724,23.434C26.64,23.434 29.005,21.102 29.005,18.226C29.005,15.349 26.64,13.017 23.724,13.017C20.808,13.017 18.444,15.349 18.444,18.226C18.444,21.102 20.808,23.434 23.724,23.434Z" fill="#D8FAAC"/>
<path d="M23.869,23.51C26.785,23.51 29.149,21.178 29.149,18.301C29.149,15.425 26.785,13.093 23.869,13.093C20.953,13.093 18.588,15.425 18.588,18.301C18.588,21.178 20.953,23.51 23.869,23.51Z" fill="#D8FAAB"/>
<path d="M24.013,23.588C26.93,23.588 29.294,21.256 29.294,18.38C29.294,15.503 26.93,13.171 24.013,13.171C21.097,13.171 18.733,15.503 18.733,18.38C18.733,21.256 21.097,23.588 24.013,23.588Z" fill="#D8FAAA"/>
<path d="M24.16,23.664C27.077,23.664 29.441,21.332 29.441,18.455C29.441,15.579 27.077,13.247 24.16,13.247C21.244,13.247 18.88,15.579 18.88,18.455C18.88,21.332 21.244,23.664 24.16,23.664Z" fill="#D7F9A9"/>
<path d="M24.305,23.742C27.221,23.742 29.585,21.41 29.585,18.534C29.585,15.657 27.221,13.325 24.305,13.325C21.389,13.325 19.025,15.657 19.025,18.534C19.025,21.41 21.389,23.742 24.305,23.742Z" fill="#D7F9A8"/>
<path d="M24.45,23.818C27.366,23.818 29.73,21.486 29.73,18.61C29.73,15.733 27.366,13.401 24.45,13.401C21.533,13.401 19.169,15.733 19.169,18.61C19.169,21.486 21.533,23.818 24.45,23.818Z" fill="#D6F9A7"/>
<path d="M24.594,23.897C27.51,23.897 29.874,21.565 29.874,18.688C29.874,15.812 27.51,13.48 24.594,13.48C21.678,13.48 19.314,15.812 19.314,18.688C19.314,21.565 21.678,23.897 24.594,23.897Z" fill="#D6F9A6"/>
<path d="M24.738,23.972C27.654,23.972 30.018,21.64 30.018,18.764C30.018,15.887 27.654,13.555 24.738,13.555C21.822,13.555 19.458,15.887 19.458,18.764C19.458,21.64 21.822,23.972 24.738,23.972Z" fill="#D5F9A5"/>
<path d="M24.883,24.048C27.799,24.048 30.163,21.716 30.163,18.839C30.163,15.963 27.799,13.631 24.883,13.631C21.967,13.631 19.602,15.963 19.602,18.839C19.602,21.716 21.967,24.048 24.883,24.048Z" fill="#D5F9A4"/>
<path d="M25.027,24.126C27.943,24.126 30.307,21.795 30.307,18.918C30.307,16.041 27.943,13.709 25.027,13.709C22.111,13.709 19.747,16.041 19.747,18.918C19.747,21.795 22.111,24.126 25.027,24.126Z" fill="#D4F9A3"/>
<path d="M25.175,24.202C28.091,24.202 30.455,21.87 30.455,18.994C30.455,16.117 28.091,13.785 25.175,13.785C22.258,13.785 19.894,16.117 19.894,18.994C19.894,21.87 22.258,24.202 25.175,24.202Z" fill="#D4F9A2"/>
<path d="M25.319,24.281C28.235,24.281 30.599,21.949 30.599,19.072C30.599,16.195 28.235,13.863 25.319,13.863C22.403,13.863 20.039,16.195 20.039,19.072C20.039,21.949 22.403,24.281 25.319,24.281Z" fill="#D3F9A1"/>
<path d="M25.463,24.356C28.38,24.356 30.744,22.024 30.744,19.148C30.744,16.271 28.38,13.939 25.463,13.939C22.547,13.939 20.183,16.271 20.183,19.148C20.183,22.024 22.547,24.356 25.463,24.356Z" fill="#D3F9A0"/>
<path d="M25.608,24.435C28.524,24.435 30.888,22.103 30.888,19.226C30.888,16.35 28.524,14.018 25.608,14.018C22.692,14.018 20.328,16.35 20.328,19.226C20.328,22.103 22.692,24.435 25.608,24.435Z" fill="#D2F99F"/>
<path d="M25.752,24.51C28.669,24.51 31.033,22.178 31.033,19.302C31.033,16.425 28.669,14.093 25.752,14.093C22.836,14.093 20.472,16.425 20.472,19.302C20.472,22.178 22.836,24.51 25.752,24.51Z" fill="#D2F99E"/>
<path d="M25.897,24.589C28.813,24.589 31.177,22.257 31.177,19.38C31.177,16.504 28.813,14.172 25.897,14.172C22.981,14.172 20.617,16.504 20.617,19.38C20.617,22.257 22.981,24.589 25.897,24.589Z" fill="#D1F99D"/>
<path d="M26.041,24.664C28.958,24.664 31.322,22.332 31.322,19.456C31.322,16.579 28.958,14.247 26.041,14.247C23.125,14.247 20.761,16.579 20.761,19.456C20.761,22.332 23.125,24.664 26.041,24.664Z" fill="#D1F99C"/>
<path d="M26.189,24.743C29.106,24.743 31.47,22.411 31.47,19.535C31.47,16.658 29.106,14.326 26.189,14.326C23.273,14.326 20.909,16.658 20.909,19.535C20.909,22.411 23.273,24.743 26.189,24.743Z" fill="#D1F99B"/>
<path d="M26.333,24.819C29.249,24.819 31.613,22.487 31.613,19.61C31.613,16.734 29.249,14.402 26.333,14.402C23.417,14.402 21.053,16.734 21.053,19.61C21.053,22.487 23.417,24.819 26.333,24.819Z" fill="#D0F89A"/>
<path d="M26.477,24.895C29.394,24.895 31.758,22.563 31.758,19.686C31.758,16.809 29.394,14.477 26.477,14.477C23.561,14.477 21.197,16.809 21.197,19.686C21.197,22.563 23.561,24.895 26.477,24.895Z" fill="#D0F899"/>
<path d="M26.622,24.973C29.538,24.973 31.902,22.641 31.902,19.764C31.902,16.888 29.538,14.556 26.622,14.556C23.706,14.556 21.342,16.888 21.342,19.764C21.342,22.641 23.706,24.973 26.622,24.973Z" fill="#CFF898"/>
<path d="M26.766,25.049C29.683,25.049 32.047,22.717 32.047,19.84C32.047,16.963 29.683,14.631 26.766,14.631C23.85,14.631 21.486,16.963 21.486,19.84C21.486,22.717 23.85,25.049 26.766,25.049Z" fill="#CFF897"/>
<path d="M26.911,25.127C29.827,25.127 32.191,22.795 32.191,19.918C32.191,17.042 29.827,14.71 26.911,14.71C23.995,14.71 21.631,17.042 21.631,19.918C21.631,22.795 23.995,25.127 26.911,25.127Z" fill="#CEF896"/>
<path d="M27.055,25.203C29.972,25.203 32.336,22.871 32.336,19.994C32.336,17.117 29.972,14.785 27.055,14.785C24.139,14.785 21.775,17.117 21.775,19.994C21.775,22.871 24.139,25.203 27.055,25.203Z" fill="#CEF895"/>
<path d="M27.203,25.281C30.119,25.281 32.483,22.949 32.483,20.073C32.483,17.196 30.119,14.864 27.203,14.864C24.286,14.864 21.922,17.196 21.922,20.073C21.922,22.949 24.286,25.281 27.203,25.281Z" fill="#CDF894"/>
<path d="M27.347,25.357C30.263,25.357 32.627,23.025 32.627,20.148C32.627,17.271 30.263,14.939 27.347,14.939C24.431,14.939 22.067,17.271 22.067,20.148C22.067,23.025 24.431,25.357 27.347,25.357Z" fill="#CDF893"/>
<path d="M27.492,25.436C30.408,25.436 32.772,23.104 32.772,20.227C32.772,17.35 30.408,15.018 27.492,15.018C24.575,15.018 22.211,17.35 22.211,20.227C22.211,23.104 24.575,25.436 27.492,25.436Z" fill="#CCF892"/>
<path d="M27.636,25.511C30.552,25.511 32.916,23.179 32.916,20.302C32.916,17.425 30.552,15.094 27.636,15.094C24.72,15.094 22.356,17.425 22.356,20.302C22.356,23.179 24.72,25.511 27.636,25.511Z" fill="#CCF891"/>
<path d="M27.781,25.59C30.697,25.59 33.061,23.258 33.061,20.381C33.061,17.504 30.697,15.172 27.781,15.172C24.864,15.172 22.5,17.504 22.5,20.381C22.5,23.258 24.864,25.59 27.781,25.59Z" fill="#CBF890"/>
<path d="M27.925,25.665C30.841,25.665 33.205,23.333 33.205,20.456C33.205,17.58 30.841,15.248 27.925,15.248C25.009,15.248 22.645,17.58 22.645,20.456C22.645,23.333 25.009,25.665 27.925,25.665Z" fill="#CBF88F"/>
<path d="M28.07,25.741C30.986,25.741 33.35,23.409 33.35,20.532C33.35,17.655 30.986,15.323 28.07,15.323C25.153,15.323 22.789,17.655 22.789,20.532C22.789,23.409 25.153,25.741 28.07,25.741Z" fill="#CBF88E"/>
<path d="M28.217,25.819C31.134,25.819 33.498,23.487 33.498,20.61C33.498,17.734 31.134,15.402 28.217,15.402C25.301,15.402 22.937,17.734 22.937,20.61C22.937,23.487 25.301,25.819 28.217,25.819Z" fill="#CAF88D"/>
<path d="M28.362,25.895C31.278,25.895 33.642,23.563 33.642,20.686C33.642,17.81 31.278,15.478 28.362,15.478C25.445,15.478 23.081,17.81 23.081,20.686C23.081,23.563 25.445,25.895 28.362,25.895Z" fill="#CAF88C"/>
<path d="M28.506,25.973C31.422,25.973 33.786,23.641 33.786,20.765C33.786,17.888 31.422,15.556 28.506,15.556C25.59,15.556 23.226,17.888 23.226,20.765C23.226,23.641 25.59,25.973 28.506,25.973Z" fill="#C9F88B"/>
<path d="M28.651,26.049C31.567,26.049 33.931,23.717 33.931,20.84C33.931,17.964 31.567,15.632 28.651,15.632C25.734,15.632 23.37,17.964 23.37,20.84C23.37,23.717 25.734,26.049 28.651,26.049Z" fill="#C9F78A"/>
<path d="M28.795,26.127C31.711,26.127 34.075,23.795 34.075,20.919C34.075,18.042 31.711,15.71 28.795,15.71C25.879,15.71 23.515,18.042 23.515,20.919C23.515,23.795 25.879,26.127 28.795,26.127Z" fill="#C8F789"/>
<path d="M28.94,26.203C31.856,26.203 34.22,23.871 34.22,20.994C34.22,18.118 31.856,15.786 28.94,15.786C26.023,15.786 23.659,18.118 23.659,20.994C23.659,23.871 26.023,26.203 28.94,26.203Z" fill="#C8F788"/>
<path d="M29.084,26.281C32,26.281 34.365,23.949 34.365,21.073C34.365,18.196 32,15.864 29.084,15.864C26.168,15.864 23.804,18.196 23.804,21.073C23.804,23.949 26.168,26.281 29.084,26.281Z" fill="#C7F787"/>
<path d="M29.231,26.357C32.147,26.357 34.511,24.025 34.511,21.148C34.511,18.272 32.147,15.94 29.231,15.94C26.315,15.94 23.951,18.272 23.951,21.148C23.951,24.025 26.315,26.357 29.231,26.357Z" fill="#C7F786"/>
<path d="M29.376,26.433C32.292,26.433 34.656,24.101 34.656,21.224C34.656,18.348 32.292,16.016 29.376,16.016C26.459,16.016 24.095,18.348 24.095,21.224C24.095,24.101 26.459,26.433 29.376,26.433Z" fill="#C6F785"/>
<path d="M29.52,26.511C32.436,26.511 34.8,24.179 34.8,21.303C34.8,18.426 32.436,16.094 29.52,16.094C26.604,16.094 24.24,18.426 24.24,21.303C24.24,24.179 26.604,26.511 29.52,26.511Z" fill="#C6F784"/>
<path d="M29.665,26.587C32.581,26.587 34.945,24.255 34.945,21.378C34.945,18.502 32.581,16.17 29.665,16.17C26.748,16.17 24.384,18.502 24.384,21.378C24.384,24.255 26.748,26.587 29.665,26.587Z" fill="#C5F783"/>
<path d="M29.809,26.665C32.725,26.665 35.089,24.333 35.089,21.457C35.089,18.58 32.725,16.248 29.809,16.248C26.893,16.248 24.529,18.58 24.529,21.457C24.529,24.333 26.893,26.665 29.809,26.665Z" fill="#C5F782"/>
<path d="M29.954,26.741C32.87,26.741 35.234,24.409 35.234,21.532C35.234,18.656 32.87,16.324 29.954,16.324C27.037,16.324 24.673,18.656 24.673,21.532C24.673,24.409 27.037,26.741 29.954,26.741Z" fill="#C4F781"/>
<path d="M30.098,26.819C33.014,26.819 35.378,24.487 35.378,21.611C35.378,18.734 33.014,16.402 30.098,16.402C27.182,16.402 24.818,18.734 24.818,21.611C24.818,24.487 27.182,26.819 30.098,26.819Z" fill="#C4F780"/>
<path d="M30.246,26.895C33.162,26.895 35.526,24.563 35.526,21.686C35.526,18.81 33.162,16.478 30.246,16.478C27.329,16.478 24.965,18.81 24.965,21.686C24.965,24.563 27.329,26.895 30.246,26.895Z" fill="#C4F77F"/>
<path d="M30.39,26.974C33.306,26.974 35.67,24.642 35.67,21.765C35.67,18.888 33.306,16.556 30.39,16.556C27.474,16.556 25.11,18.888 25.11,21.765C25.11,24.642 27.474,26.974 30.39,26.974Z" fill="#C3F77E"/>
<path d="M30.535,27.049C33.451,27.049 35.815,24.717 35.815,21.84C35.815,18.964 33.451,16.632 30.535,16.632C27.618,16.632 25.254,18.964 25.254,21.84C25.254,24.717 27.618,27.049 30.535,27.049Z" fill="#C3F77D"/>
<path d="M30.679,27.128C33.595,27.128 35.959,24.796 35.959,21.919C35.959,19.042 33.595,16.71 30.679,16.71C27.763,16.71 25.399,19.042 25.399,21.919C25.399,24.796 27.763,27.128 30.679,27.128Z" fill="#C2F77C"/>
<path d="M30.824,27.203C33.74,27.203 36.104,24.871 36.104,21.995C36.104,19.118 33.74,16.786 30.824,16.786C27.907,16.786 25.543,19.118 25.543,21.995C25.543,24.871 27.907,27.203 30.824,27.203Z" fill="#C2F67B"/>
<path d="M30.968,27.279C33.884,27.279 36.248,24.947 36.248,22.07C36.248,19.194 33.884,16.862 30.968,16.862C28.052,16.862 25.688,19.194 25.688,22.07C25.688,24.947 28.052,27.279 30.968,27.279Z" fill="#C1F67A"/>
<path d="M31.113,27.357C34.029,27.357 36.393,25.025 36.393,22.149C36.393,19.272 34.029,16.94 31.113,16.94C28.196,16.94 25.832,19.272 25.832,22.149C25.832,25.025 28.196,27.357 31.113,27.357Z" fill="#C1F679"/>
<path d="M31.26,27.433C34.176,27.433 36.54,25.101 36.54,22.225C36.54,19.348 34.176,17.016 31.26,17.016C28.344,17.016 25.98,19.348 25.98,22.225C25.98,25.101 28.344,27.433 31.26,27.433Z" fill="#C0F678"/>
<path d="M31.404,27.512C34.321,27.512 36.685,25.18 36.685,22.303C36.685,19.426 34.321,17.094 31.404,17.094C28.488,17.094 26.124,19.426 26.124,22.303C26.124,25.18 28.488,27.512 31.404,27.512Z" fill="#C0F677"/>
<path d="M31.549,27.587C34.465,27.587 36.829,25.255 36.829,22.379C36.829,19.502 34.465,17.17 31.549,17.17C28.633,17.17 26.269,19.502 26.269,22.379C26.269,25.255 28.633,27.587 31.549,27.587Z" fill="#BFF676"/>
<path d="M31.693,27.666C34.61,27.666 36.974,25.334 36.974,22.457C36.974,19.581 34.61,17.249 31.693,17.249C28.777,17.249 26.413,19.581 26.413,22.457C26.413,25.334 28.777,27.666 31.693,27.666Z" fill="#BFF675"/>
<path d="M31.837,27.741C34.754,27.741 37.118,25.409 37.118,22.533C37.118,19.656 34.754,17.324 31.837,17.324C28.921,17.324 26.557,19.656 26.557,22.533C26.557,25.409 28.921,27.741 31.837,27.741Z" fill="#BEF674"/>
<path d="M31.982,27.82C34.898,27.82 37.262,25.488 37.262,22.611C37.262,19.735 34.898,17.403 31.982,17.403C29.066,17.403 26.702,19.735 26.702,22.611C26.702,25.488 29.066,27.82 31.982,27.82Z" fill="#BEF673"/>
<path d="M32.126,27.895C35.043,27.895 37.407,25.563 37.407,22.687C37.407,19.81 35.043,17.478 32.126,17.478C29.21,17.478 26.846,19.81 26.846,22.687C26.846,25.563 29.21,27.895 32.126,27.895Z" fill="#BEF672"/>
<path d="M32.274,27.974C35.19,27.974 37.554,25.642 37.554,22.765C37.554,19.889 35.19,17.557 32.274,17.557C29.358,17.557 26.994,19.889 26.994,22.765C26.994,25.642 29.358,27.974 32.274,27.974Z" fill="#BDF671"/>
<path d="M32.418,28.05C35.335,28.05 37.699,25.718 37.699,22.841C37.699,19.965 35.335,17.633 32.418,17.633C29.502,17.633 27.138,19.965 27.138,22.841C27.138,25.718 29.502,28.05 32.418,28.05Z" fill="#BDF670"/>
<path d="M32.563,28.126C35.479,28.126 37.843,25.794 37.843,22.917C37.843,20.04 35.479,17.708 32.563,17.708C29.647,17.708 27.283,20.04 27.283,22.917C27.283,25.794 29.647,28.126 32.563,28.126Z" fill="#BCF66F"/>
<path d="M32.707,28.204C35.624,28.204 37.988,25.872 37.988,22.995C37.988,20.119 35.624,17.787 32.707,17.787C29.791,17.787 27.427,20.119 27.427,22.995C27.427,25.872 29.791,28.204 32.707,28.204Z" fill="#BCF66E"/>
<path d="M32.852,28.28C35.768,28.28 38.132,25.948 38.132,23.071C38.132,20.194 35.768,17.862 32.852,17.862C29.936,17.862 27.572,20.194 27.572,23.071C27.572,25.948 29.936,28.28 32.852,28.28Z" fill="#BBF66D"/>
<path d="M32.996,28.358C35.913,28.358 38.277,26.026 38.277,23.15C38.277,20.273 35.913,17.941 32.996,17.941C30.08,17.941 27.716,20.273 27.716,23.15C27.716,26.026 30.08,28.358 32.996,28.358Z" fill="#BBF66C"/>
<path d="M33.141,28.434C36.057,28.434 38.421,26.102 38.421,23.225C38.421,20.348 36.057,18.016 33.141,18.016C30.224,18.016 27.86,20.348 27.86,23.225C27.86,26.102 30.224,28.434 33.141,28.434Z" fill="#BAF56B"/>
<path d="M33.285,28.512C36.201,28.512 38.565,26.18 38.565,23.304C38.565,20.427 36.201,18.095 33.285,18.095C30.369,18.095 28.005,20.427 28.005,23.304C28.005,26.18 30.369,28.512 33.285,28.512Z" fill="#BAF56A"/>
<path d="M33.433,28.588C36.349,28.588 38.713,26.256 38.713,23.379C38.713,20.502 36.349,18.17 33.433,18.17C30.516,18.17 28.152,20.502 28.152,23.379C28.152,26.256 30.516,28.588 33.433,28.588Z" fill="#B9F569"/>
<path d="M33.577,28.666C36.493,28.666 38.857,26.334 38.857,23.458C38.857,20.581 36.493,18.249 33.577,18.249C30.661,18.249 28.297,20.581 28.297,23.458C28.297,26.334 30.661,28.666 33.577,28.666Z" fill="#B9F568"/>
<path d="M33.721,28.742C36.638,28.742 39.002,26.41 39.002,23.533C39.002,20.656 36.638,18.324 33.721,18.324C30.805,18.324 28.441,20.656 28.441,23.533C28.441,26.41 30.805,28.742 33.721,28.742Z" fill="#B8F567"/>
<path d="M33.866,28.818C36.782,28.818 39.146,26.486 39.146,23.609C39.146,20.732 36.782,18.4 33.866,18.4C30.95,18.4 28.586,20.732 28.586,23.609C28.586,26.486 30.95,28.818 33.866,28.818Z" fill="#B8F566"/>
<path d="M34.01,28.896C36.927,28.896 39.291,26.564 39.291,23.688C39.291,20.811 36.927,18.479 34.01,18.479C31.094,18.479 28.73,20.811 28.73,23.688C28.73,26.564 31.094,28.896 34.01,28.896Z" fill="#B7F565"/>
<path d="M34.155,28.972C37.071,28.972 39.435,26.64 39.435,23.763C39.435,20.886 37.071,18.554 34.155,18.554C31.239,18.554 28.875,20.886 28.875,23.763C28.875,26.64 31.239,28.972 34.155,28.972Z" fill="#B7F564"/>
<path d="M33.993,29.059C36.909,29.059 39.273,26.727 39.273,23.85C39.273,20.974 36.909,18.642 33.993,18.642C31.077,18.642 28.712,20.974 28.712,23.85C28.712,26.727 31.077,29.059 33.993,29.059Z" fill="#B7F465"/>
<path d="M33.831,29.146C36.747,29.146 39.111,26.814 39.111,23.937C39.111,21.061 36.747,18.729 33.831,18.729C30.914,18.729 28.55,21.061 28.55,23.937C28.55,26.814 30.914,29.146 33.831,29.146Z" fill="#B8F365"/>
<path d="M33.669,29.233C36.585,29.233 38.949,26.901 38.949,24.025C38.949,21.148 36.585,18.816 33.669,18.816C30.753,18.816 28.388,21.148 28.388,24.025C28.388,26.901 30.753,29.233 33.669,29.233Z" fill="#B8F266"/>
<path d="M33.506,29.318C36.423,29.318 38.787,26.986 38.787,24.109C38.787,21.233 36.423,18.901 33.506,18.901C30.59,18.901 28.226,21.233 28.226,24.109C28.226,26.986 30.59,29.318 33.506,29.318Z" fill="#B8F167"/>
<path d="M33.341,29.405C36.257,29.405 38.621,27.073 38.621,24.196C38.621,21.32 36.257,18.988 33.341,18.988C30.425,18.988 28.061,21.32 28.061,24.196C28.061,27.073 30.425,29.405 33.341,29.405Z" fill="#B9F067"/>
<path d="M33.179,29.492C36.095,29.492 38.459,27.16 38.459,24.284C38.459,21.407 36.095,19.075 33.179,19.075C30.263,19.075 27.899,21.407 27.899,24.284C27.899,27.16 30.263,29.492 33.179,29.492Z" fill="#B9EF68"/>
<path d="M33.017,29.576C35.933,29.576 38.297,27.244 38.297,24.368C38.297,21.491 35.933,19.159 33.017,19.159C30.101,19.159 27.737,21.491 27.737,24.368C27.737,27.244 30.101,29.576 33.017,29.576Z" fill="#B9EE69"/>
<path d="M32.855,29.664C35.771,29.664 38.135,27.332 38.135,24.455C38.135,21.579 35.771,19.247 32.855,19.247C29.939,19.247 27.575,21.579 27.575,24.455C27.575,27.332 29.939,29.664 32.855,29.664Z" fill="#B9ED69"/>
<path d="M32.693,29.751C35.609,29.751 37.973,27.419 37.973,24.543C37.973,21.666 35.609,19.334 32.693,19.334C29.777,19.334 27.412,21.666 27.412,24.543C27.412,27.419 29.777,29.751 32.693,29.751Z" fill="#BAEC6A"/>
<path d="M32.527,29.835C35.444,29.835 37.808,27.503 37.808,24.627C37.808,21.75 35.444,19.418 32.527,19.418C29.611,19.418 27.247,21.75 27.247,24.627C27.247,27.503 29.611,29.835 32.527,29.835Z" fill="#BAEB6B"/>
<path d="M32.365,29.923C35.281,29.923 37.646,27.591 37.646,24.714C37.646,21.837 35.281,19.505 32.365,19.505C29.449,19.505 27.085,21.837 27.085,24.714C27.085,27.591 29.449,29.923 32.365,29.923Z" fill="#BAEA6B"/>
<path d="M32.203,30.01C35.12,30.01 37.484,27.678 37.484,24.801C37.484,21.925 35.12,19.593 32.203,19.593C29.287,19.593 26.923,21.925 26.923,24.801C26.923,27.678 29.287,30.01 32.203,30.01Z" fill="#BBE96C"/>
<path d="M32.041,30.097C34.957,30.097 37.321,27.765 37.321,24.889C37.321,22.012 34.957,19.68 32.041,19.68C29.125,19.68 26.761,22.012 26.761,24.889C26.761,27.765 29.125,30.097 32.041,30.097Z" fill="#BBE86D"/>
<path d="M31.879,30.181C34.795,30.181 37.159,27.849 37.159,24.973C37.159,22.096 34.795,19.764 31.879,19.764C28.962,19.764 26.598,22.096 26.598,24.973C26.598,27.849 28.962,30.181 31.879,30.181Z" fill="#BBE76D"/>
<path d="M31.714,30.269C34.63,30.269 36.994,27.937 36.994,25.06C36.994,22.184 34.63,19.852 31.714,19.852C28.798,19.852 26.434,22.184 26.434,25.06C26.434,27.937 28.798,30.269 31.714,30.269Z" fill="#BCE66E"/>
<path d="M31.552,30.356C34.468,30.356 36.832,28.024 36.832,25.147C36.832,22.27 34.468,19.938 31.552,19.938C28.635,19.938 26.271,22.27 26.271,25.147C26.271,28.024 28.635,30.356 31.552,30.356Z" fill="#BCE56F"/>
<path d="M31.39,30.44C34.306,30.44 36.67,28.108 36.67,25.232C36.67,22.355 34.306,20.023 31.39,20.023C28.474,20.023 26.109,22.355 26.109,25.232C26.109,28.108 28.474,30.44 31.39,30.44Z" fill="#BCE46F"/>
<path d="M31.227,30.528C34.144,30.528 36.508,28.196 36.508,25.319C36.508,22.442 34.144,20.11 31.227,20.11C28.311,20.11 25.947,22.442 25.947,25.319C25.947,28.196 28.311,30.528 31.227,30.528Z" fill="#BCE370"/>
<path d="M31.065,30.615C33.981,30.615 36.345,28.283 36.345,25.406C36.345,22.529 33.981,20.198 31.065,20.198C28.149,20.198 25.785,22.529 25.785,25.406C25.785,28.283 28.149,30.615 31.065,30.615Z" fill="#BDE271"/>
<path d="M30.9,30.702C33.816,30.702 36.18,28.37 36.18,25.493C36.18,22.617 33.816,20.285 30.9,20.285C27.984,20.285 25.62,22.617 25.62,25.493C25.62,28.37 27.984,30.702 30.9,30.702Z" fill="#BDE171"/>
<path d="M30.738,30.787C33.654,30.787 36.018,28.455 36.018,25.578C36.018,22.701 33.654,20.369 30.738,20.369C27.822,20.369 25.458,22.701 25.458,25.578C25.458,28.455 27.822,30.787 30.738,30.787Z" fill="#BDE072"/>
<path d="M30.576,30.874C33.492,30.874 35.856,28.542 35.856,25.665C35.856,22.789 33.492,20.457 30.576,20.457C27.66,20.457 25.296,22.789 25.296,25.665C25.296,28.542 27.66,30.874 30.576,30.874Z" fill="#BEDF73"/>
<path d="M30.413,30.961C33.33,30.961 35.694,28.629 35.694,25.752C35.694,22.876 33.33,20.544 30.413,20.544C27.497,20.544 25.133,22.876 25.133,25.752C25.133,28.629 27.497,30.961 30.413,30.961Z" fill="#BEDE73"/>
<path d="M30.251,31.045C33.168,31.045 35.532,28.713 35.532,25.837C35.532,22.96 33.168,20.628 30.251,20.628C27.335,20.628 24.971,22.96 24.971,25.837C24.971,28.713 27.335,31.045 30.251,31.045Z" fill="#BEDD74"/>
<path d="M30.086,31.133C33.002,31.133 35.367,28.801 35.367,25.924C35.367,23.047 33.002,20.715 30.086,20.715C27.17,20.715 24.806,23.047 24.806,25.924C24.806,28.801 27.17,31.133 30.086,31.133Z" fill="#BFDC75"/>
<path d="M29.924,31.22C32.84,31.22 35.204,28.888 35.204,26.011C35.204,23.135 32.84,20.803 29.924,20.803C27.008,20.803 24.644,23.135 24.644,26.011C24.644,28.888 27.008,31.22 29.924,31.22Z" fill="#BFDB75"/>
<path d="M29.762,31.307C32.679,31.307 35.043,28.975 35.043,26.098C35.043,23.222 32.679,20.89 29.762,20.89C26.846,20.89 24.482,23.222 24.482,26.098C24.482,28.975 26.846,31.307 29.762,31.307Z" fill="#BFDA76"/>
<path d="M29.6,31.391C32.516,31.391 34.88,29.059 34.88,26.183C34.88,23.306 32.516,20.974 29.6,20.974C26.684,20.974 24.32,23.306 24.32,26.183C24.32,29.059 26.684,31.391 29.6,31.391Z" fill="#C0D977"/>
<path d="M29.437,31.479C32.354,31.479 34.718,29.147 34.718,26.27C34.718,23.394 32.354,21.062 29.437,21.062C26.521,21.062 24.157,23.394 24.157,26.27C24.157,29.147 26.521,31.479 29.437,31.479Z" fill="#C0D877"/>
<path d="M29.272,31.566C32.189,31.566 34.553,29.234 34.553,26.357C34.553,23.48 32.189,21.148 29.272,21.148C26.356,21.148 23.992,23.48 23.992,26.357C23.992,29.234 26.356,31.566 29.272,31.566Z" fill="#C0D778"/>
<path d="M29.111,31.65C32.027,31.65 34.391,29.318 34.391,26.441C34.391,23.565 32.027,21.233 29.111,21.233C26.194,21.233 23.83,23.565 23.83,26.441C23.83,29.318 26.194,31.65 29.111,31.65Z" fill="#C0D679"/>
<path d="M28.948,31.737C31.865,31.737 34.229,29.405 34.229,26.529C34.229,23.652 31.865,21.32 28.948,21.32C26.032,21.32 23.668,23.652 23.668,26.529C23.668,29.405 26.032,31.737 28.948,31.737Z" fill="#C1D579"/>
<path d="M28.786,31.824C31.702,31.824 34.067,29.493 34.067,26.616C34.067,23.739 31.702,21.407 28.786,21.407C25.87,21.407 23.506,23.739 23.506,26.616C23.506,29.493 25.87,31.824 28.786,31.824Z" fill="#C1D47A"/>
<path d="M28.624,31.912C31.54,31.912 33.904,29.58 33.904,26.703C33.904,23.827 31.54,21.495 28.624,21.495C25.708,21.495 23.344,23.827 23.344,26.703C23.344,29.58 25.708,31.912 28.624,31.912Z" fill="#C1D37B"/>
<path d="M28.459,31.996C31.375,31.996 33.739,29.664 33.739,26.787C33.739,23.911 31.375,21.579 28.459,21.579C25.542,21.579 23.178,23.911 23.178,26.787C23.178,29.664 25.542,31.996 28.459,31.996Z" fill="#C2D27B"/>
<path d="M28.297,32.083C31.213,32.083 33.577,29.751 33.577,26.875C33.577,23.998 31.213,21.666 28.297,21.666C25.38,21.666 23.016,23.998 23.016,26.875C23.016,29.751 25.38,32.083 28.297,32.083Z" fill="#C2D17C"/>
<path d="M28.135,32.17C31.051,32.17 33.415,29.838 33.415,26.962C33.415,24.085 31.051,21.753 28.135,21.753C25.219,21.753 22.854,24.085 22.854,26.962C22.854,29.838 25.219,32.17 28.135,32.17Z" fill="#C2D07D"/>
<path d="M27.972,32.255C30.889,32.255 33.253,29.923 33.253,27.046C33.253,24.17 30.889,21.838 27.972,21.838C25.056,21.838 22.692,24.17 22.692,27.046C22.692,29.923 25.056,32.255 27.972,32.255Z" fill="#C3CF7D"/>
<path d="M27.81,32.342C30.726,32.342 33.09,30.01 33.09,27.134C33.09,24.257 30.726,21.925 27.81,21.925C24.894,21.925 22.53,24.257 22.53,27.134C22.53,30.01 24.894,32.342 27.81,32.342Z" fill="#C3CE7E"/>
<path d="M27.648,32.429C30.564,32.429 32.928,30.097 32.928,27.221C32.928,24.344 30.564,22.012 27.648,22.012C24.732,22.012 22.368,24.344 22.368,27.221C22.368,30.097 24.732,32.429 27.648,32.429Z" fill="#C3CD7F"/>
<path d="M27.483,32.517C30.399,32.517 32.763,30.185 32.763,27.308C32.763,24.431 30.399,22.099 27.483,22.099C24.567,22.099 22.203,24.431 22.203,27.308C22.203,30.185 24.567,32.517 27.483,32.517Z" fill="#C3CC7F"/>
<path d="M27.321,32.601C30.237,32.601 32.602,30.269 32.602,27.392C32.602,24.516 30.237,22.184 27.321,22.184C24.405,22.184 22.041,24.516 22.041,27.392C22.041,30.269 24.405,32.601 27.321,32.601Z" fill="#C4CB80"/>
<path d="M27.159,32.689C30.075,32.689 32.439,30.357 32.439,27.48C32.439,24.603 30.075,22.271 27.159,22.271C24.243,22.271 21.878,24.603 21.878,27.48C21.878,30.357 24.243,32.689 27.159,32.689Z" fill="#C4CA81"/>
<path d="M26.996,32.776C29.913,32.776 32.277,30.444 32.277,27.567C32.277,24.69 29.913,22.358 26.996,22.358C24.08,22.358 21.716,24.69 21.716,27.567C21.716,30.444 24.08,32.776 26.996,32.776Z" fill="#C4C981"/>
<path d="M26.835,32.86C29.751,32.86 32.115,30.528 32.115,27.651C32.115,24.775 29.751,22.443 26.835,22.443C23.918,22.443 21.554,24.775 21.554,27.651C21.554,30.528 23.918,32.86 26.835,32.86Z" fill="#C5C882"/>
<path d="M26.669,32.947C29.586,32.947 31.95,30.615 31.95,27.738C31.95,24.862 29.586,22.53 26.669,22.53C23.753,22.53 21.389,24.862 21.389,27.738C21.389,30.615 23.753,32.947 26.669,32.947Z" fill="#C5C783"/>
<path d="M26.507,33.034C29.423,33.034 31.788,30.702 31.788,27.826C31.788,24.949 29.423,22.617 26.507,22.617C23.591,22.617 21.227,24.949 21.227,27.826C21.227,30.702 23.591,33.034 26.507,33.034Z" fill="#C5C683"/>
<path d="M26.345,33.119C29.261,33.119 31.625,30.787 31.625,27.91C31.625,25.033 29.261,22.701 26.345,22.701C23.429,22.701 21.065,25.033 21.065,27.91C21.065,30.787 23.429,33.119 26.345,33.119Z" fill="#C6C584"/>
<path d="M26.183,33.206C29.099,33.206 31.463,30.874 31.463,27.997C31.463,25.121 29.099,22.789 26.183,22.789C23.266,22.789 20.902,25.121 20.902,27.997C20.902,30.874 23.266,33.206 26.183,33.206Z" fill="#C6C485"/>
<path d="M26.021,33.293C28.937,33.293 31.301,30.961 31.301,28.084C31.301,25.208 28.937,22.876 26.021,22.876C23.105,22.876 20.741,25.208 20.741,28.084C20.741,30.961 23.105,33.293 26.021,33.293Z" fill="#C6C385"/>
<path d="M25.856,33.381C28.772,33.381 31.136,31.049 31.136,28.172C31.136,25.295 28.772,22.963 25.856,22.963C22.94,22.963 20.575,25.295 20.575,28.172C20.575,31.049 22.94,33.381 25.856,33.381Z" fill="#C7C286"/>
<path d="M25.694,33.465C28.61,33.465 30.974,31.133 30.974,28.256C30.974,25.38 28.61,23.048 25.694,23.048C22.777,23.048 20.413,25.38 20.413,28.256C20.413,31.133 22.777,33.465 25.694,33.465Z" fill="#C7C187"/>
<path d="M25.532,33.552C28.448,33.552 30.812,31.22 30.812,28.343C30.812,25.467 28.448,23.135 25.532,23.135C22.615,23.135 20.251,25.467 20.251,28.343C20.251,31.22 22.615,33.552 25.532,33.552Z" fill="#C7C087"/>
<path d="M25.369,33.639C28.285,33.639 30.649,31.307 30.649,28.431C30.649,25.554 28.285,23.222 25.369,23.222C22.453,23.222 20.089,25.554 20.089,28.431C20.089,31.307 22.453,33.639 25.369,33.639Z" fill="#C7BF88"/>
<path d="M25.207,33.723C28.124,33.723 30.488,31.391 30.488,28.515C30.488,25.638 28.124,23.306 25.207,23.306C22.291,23.306 19.927,25.638 19.927,28.515C19.927,31.391 22.291,33.723 25.207,33.723Z" fill="#C8BE89"/>
<path d="M25.042,33.811C27.958,33.811 30.322,31.479 30.322,28.602C30.322,25.726 27.958,23.394 25.042,23.394C22.126,23.394 19.762,25.726 19.762,28.602C19.762,31.479 22.126,33.811 25.042,33.811Z" fill="#C8BD89"/>
<path d="M24.88,33.898C27.796,33.898 30.16,31.566 30.16,28.69C30.16,25.813 27.796,23.481 24.88,23.481C21.964,23.481 19.6,25.813 19.6,28.69C19.6,31.566 21.964,33.898 24.88,33.898Z" fill="#C8BC8A"/>
<path d="M24.718,33.985C27.634,33.985 29.998,31.653 29.998,28.777C29.998,25.9 27.634,23.568 24.718,23.568C21.801,23.568 19.437,25.9 19.437,28.777C19.437,31.653 21.801,33.985 24.718,33.985Z" fill="#C9BB8B"/>
<path d="M24.556,34.07C27.472,34.07 29.836,31.738 29.836,28.861C29.836,25.984 27.472,23.652 24.556,23.652C21.639,23.652 19.275,25.984 19.275,28.861C19.275,31.738 21.639,34.07 24.556,34.07Z" fill="#C9BA8B"/>
<path d="M24.393,34.157C27.31,34.157 29.674,31.825 29.674,28.949C29.674,26.072 27.31,23.74 24.393,23.74C21.477,23.74 19.113,26.072 19.113,28.949C19.113,31.825 21.477,34.157 24.393,34.157Z" fill="#C9B98C"/>
<path d="M24.228,34.244C27.145,34.244 29.509,31.912 29.509,29.036C29.509,26.159 27.145,23.827 24.228,23.827C21.312,23.827 18.948,26.159 18.948,29.036C18.948,31.912 21.312,34.244 24.228,34.244Z" fill="#CAB88D"/>
<path d="M24.066,34.329C26.983,34.329 29.347,31.997 29.347,29.12C29.347,26.243 26.983,23.911 24.066,23.911C21.15,23.911 18.786,26.243 18.786,29.12C18.786,31.997 21.15,34.329 24.066,34.329Z" fill="#CAB78D"/>
<path d="M23.904,34.416C26.82,34.416 29.184,32.084 29.184,29.207C29.184,26.331 26.82,23.999 23.904,23.999C20.988,23.999 18.624,26.331 18.624,29.207C18.624,32.084 20.988,34.416 23.904,34.416Z" fill="#CAB68E"/>
<path d="M23.742,34.503C26.658,34.503 29.022,32.171 29.022,29.294C29.022,26.418 26.658,24.086 23.742,24.086C20.825,24.086 18.461,26.418 18.461,29.294C18.461,32.171 20.825,34.503 23.742,34.503Z" fill="#CAB58F"/>
<path d="M23.58,34.59C26.496,34.59 28.86,32.258 28.86,29.382C28.86,26.505 26.496,24.173 23.58,24.173C20.664,24.173 18.299,26.505 18.299,29.382C18.299,32.258 20.664,34.59 23.58,34.59Z" fill="#CBB48F"/>
<path d="M23.415,34.675C26.331,34.675 28.695,32.343 28.695,29.466C28.695,26.589 26.331,24.257 23.415,24.257C20.498,24.257 18.134,26.589 18.134,29.466C18.134,32.343 20.498,34.675 23.415,34.675Z" fill="#CBB390"/>
<path d="M23.253,34.762C26.169,34.762 28.533,32.43 28.533,29.553C28.533,26.677 26.169,24.345 23.253,24.345C20.336,24.345 17.972,26.677 17.972,29.553C17.972,32.43 20.336,34.762 23.253,34.762Z" fill="#CBB291"/>
<path d="M23.09,34.849C26.006,34.849 28.37,32.517 28.37,29.641C28.37,26.764 26.006,24.432 23.09,24.432C20.174,24.432 17.81,26.764 17.81,29.641C17.81,32.517 20.174,34.849 23.09,34.849Z" fill="#CCB191"/>
<path d="M22.928,34.934C25.844,34.934 28.208,32.602 28.208,29.725C28.208,26.848 25.844,24.516 22.928,24.516C20.012,24.516 17.648,26.848 17.648,29.725C17.648,32.602 20.012,34.934 22.928,34.934Z" fill="#CCB092"/>
<path d="M22.766,35.021C25.682,35.021 28.046,32.689 28.046,29.812C28.046,26.935 25.682,24.604 22.766,24.604C19.85,24.604 17.486,26.935 17.486,29.812C17.486,32.689 19.85,35.021 22.766,35.021Z" fill="#CCAF93"/>
<path d="M22.601,35.108C25.517,35.108 27.881,32.776 27.881,29.899C27.881,27.023 25.517,24.691 22.601,24.691C19.685,24.691 17.32,27.023 17.32,29.899C17.32,32.776 19.685,35.108 22.601,35.108Z" fill="#CDAE93"/>
<path d="M22.439,35.195C25.355,35.195 27.719,32.863 27.719,29.986C27.719,27.11 25.355,24.778 22.439,24.778C19.522,24.778 17.158,27.11 17.158,29.986C17.158,32.863 19.522,35.195 22.439,35.195Z" fill="#CDAD94"/>
<path d="M22.276,35.28C25.192,35.28 27.556,32.948 27.556,30.071C27.556,27.195 25.192,24.863 22.276,24.863C19.36,24.863 16.996,27.195 16.996,30.071C16.996,32.948 19.36,35.28 22.276,35.28Z" fill="#CDAC95"/>
<path d="M22.114,35.367C25.03,35.367 27.394,33.035 27.394,30.158C27.394,27.282 25.03,24.95 22.114,24.95C19.198,24.95 16.834,27.282 16.834,30.158C16.834,33.035 19.198,35.367 22.114,35.367Z" fill="#CEAB95"/>
<path d="M21.952,35.454C24.868,35.454 27.233,33.122 27.233,30.246C27.233,27.369 24.868,25.037 21.952,25.037C19.036,25.037 16.672,27.369 16.672,30.246C16.672,33.122 19.036,35.454 21.952,35.454Z" fill="#CEAA96"/>
<path d="M21.787,35.538C24.703,35.538 27.067,33.206 27.067,30.33C27.067,27.453 24.703,25.121 21.787,25.121C18.871,25.121 16.507,27.453 16.507,30.33C16.507,33.206 18.871,35.538 21.787,35.538Z" fill="#CEA997"/>
<path d="M21.625,35.626C24.541,35.626 26.905,33.294 26.905,30.417C26.905,27.54 24.541,25.208 21.625,25.208C18.708,25.208 16.344,27.54 16.344,30.417C16.344,33.294 18.708,35.626 21.625,35.626Z" fill="#CEA897"/>
<path d="M21.462,35.713C24.379,35.713 26.743,33.381 26.743,30.504C26.743,27.628 24.379,25.296 21.462,25.296C18.546,25.296 16.182,27.628 16.182,30.504C16.182,33.381 18.546,35.713 21.462,35.713Z" fill="#CFA798"/>
<path d="M21.3,35.797C24.217,35.797 26.581,33.465 26.581,30.589C26.581,27.712 24.217,25.38 21.3,25.38C18.384,25.38 16.02,27.712 16.02,30.589C16.02,33.465 18.384,35.797 21.3,35.797Z" fill="#CFA699"/>
<path d="M21.139,35.884C24.055,35.884 26.419,33.552 26.419,30.676C26.419,27.799 24.055,25.467 21.139,25.467C18.222,25.467 15.858,27.799 15.858,30.676C15.858,33.552 18.222,35.884 21.139,35.884Z" fill="#CFA599"/>
<path d="M20.974,35.972C23.89,35.972 26.254,33.64 26.254,30.763C26.254,27.886 23.89,25.554 20.974,25.554C18.057,25.554 15.693,27.886 15.693,30.763C15.693,33.64 18.057,35.972 20.974,35.972Z" fill="#D0A49A"/>
<path d="M20.811,36.059C23.727,36.059 26.091,33.727 26.091,30.85C26.091,27.974 23.727,25.642 20.811,25.642C17.895,25.642 15.531,27.974 15.531,30.85C15.531,33.727 17.895,36.059 20.811,36.059Z" fill="#D0A39B"/>
<path d="M20.649,36.143C23.565,36.143 25.929,33.811 25.929,30.935C25.929,28.058 23.565,25.726 20.649,25.726C17.733,25.726 15.368,28.058 15.368,30.935C15.368,33.811 17.733,36.143 20.649,36.143Z" fill="#D0A29B"/>
<path d="M20.487,36.231C23.403,36.231 25.767,33.899 25.767,31.022C25.767,28.145 23.403,25.813 20.487,25.813C17.571,25.813 15.207,28.145 15.207,31.022C15.207,33.899 17.571,36.231 20.487,36.231Z" fill="#D1A19C"/>
<path d="M20.325,36.318C23.241,36.318 25.605,33.986 25.605,31.109C25.605,28.232 23.241,25.9 20.325,25.9C17.409,25.9 15.045,28.232 15.045,31.109C15.045,33.986 17.409,36.318 20.325,36.318Z" fill="#D1A09D"/>
<path d="M20.163,36.402C23.079,36.402 25.443,34.07 25.443,31.194C25.443,28.317 23.079,25.985 20.163,25.985C17.246,25.985 14.882,28.317 14.882,31.194C14.882,34.07 17.246,36.402 20.163,36.402Z" fill="#D19F9D"/>
<path d="M19.998,36.49C22.914,36.49 25.278,34.158 25.278,31.281C25.278,28.404 22.914,26.072 19.998,26.072C17.081,26.072 14.717,28.404 14.717,31.281C14.717,34.158 17.081,36.49 19.998,36.49Z" fill="#D19E9E"/>
<path d="M19.835,36.577C22.751,36.577 25.115,34.245 25.115,31.368C25.115,28.491 22.751,26.159 19.835,26.159C16.919,26.159 14.555,28.491 14.555,31.368C14.555,34.245 16.919,36.577 19.835,36.577Z" fill="#D29D9F"/>
<path d="M19.673,36.664C22.589,36.664 24.954,34.332 24.954,31.455C24.954,28.579 22.589,26.247 19.673,26.247C16.757,26.247 14.393,28.579 14.393,31.455C14.393,34.332 16.757,36.664 19.673,36.664Z" fill="#D29C9F"/>
<path d="M19.511,36.749C22.427,36.749 24.791,34.417 24.791,31.54C24.791,28.663 22.427,26.331 19.511,26.331C16.595,26.331 14.231,28.663 14.231,31.54C14.231,34.417 16.595,36.749 19.511,36.749Z" fill="#D29BA0"/>
<path d="M19.349,36.835C22.265,36.835 24.629,34.503 24.629,31.627C24.629,28.75 22.265,26.418 19.349,26.418C16.433,26.418 14.069,28.75 14.069,31.627C14.069,34.503 16.433,36.835 19.349,36.835Z" fill="#D39AA1"/>
<path d="M19.184,36.923C22.1,36.923 24.464,34.591 24.464,31.714C24.464,28.838 22.1,26.506 19.184,26.506C16.268,26.506 13.904,28.838 13.904,31.714C13.904,34.591 16.268,36.923 19.184,36.923Z" fill="#D399A1"/>
<path d="M19.021,37.007C21.938,37.007 24.302,34.675 24.302,31.798C24.302,28.922 21.938,26.59 19.021,26.59C16.105,26.59 13.741,28.922 13.741,31.798C13.741,34.675 16.105,37.007 19.021,37.007Z" fill="#D398A2"/>
<path d="M18.859,37.094C21.776,37.094 24.14,34.762 24.14,31.886C24.14,29.009 21.776,26.677 18.859,26.677C15.943,26.677 13.579,29.009 13.579,31.886C13.579,34.762 15.943,37.094 18.859,37.094Z" fill="#D497A3"/>
<path d="M18.698,37.182C21.614,37.182 23.978,34.85 23.978,31.973C23.978,29.096 21.614,26.764 18.698,26.764C15.781,26.764 13.417,29.096 13.417,31.973C13.417,34.85 15.781,37.182 18.698,37.182Z" fill="#D496A3"/>
<path d="M18.535,37.269C21.451,37.269 23.815,34.937 23.815,32.06C23.815,29.184 21.451,26.852 18.535,26.852C15.619,26.852 13.255,29.184 13.255,32.06C13.255,34.937 15.619,37.269 18.535,37.269Z" fill="#D495A4"/>
<path d="M18.37,37.353C21.286,37.353 23.65,35.021 23.65,32.144C23.65,29.268 21.286,26.936 18.37,26.936C15.454,26.936 13.09,29.268 13.09,32.144C13.09,35.021 15.454,37.353 18.37,37.353Z" fill="#D594A5"/>
<path d="M18.208,37.44C21.124,37.44 23.488,35.108 23.488,32.232C23.488,29.355 21.124,27.023 18.208,27.023C15.291,27.023 12.927,29.355 12.927,32.232C12.927,35.108 15.291,37.44 18.208,37.44Z" fill="#D593A5"/>
<path d="M18.046,37.528C20.962,37.528 23.326,35.196 23.326,32.319C23.326,29.443 20.962,27.111 18.046,27.111C15.13,27.111 12.765,29.443 12.765,32.319C12.765,35.196 15.13,37.528 18.046,37.528Z" fill="#D592A6"/>
<path d="M17.884,37.612C20.8,37.612 23.164,35.28 23.164,32.403C23.164,29.527 20.8,27.195 17.884,27.195C14.968,27.195 12.604,29.527 12.604,32.403C12.604,35.28 14.968,37.612 17.884,37.612Z" fill="#D591A7"/>
<path d="M17.722,37.699C20.638,37.699 23.002,35.367 23.002,32.491C23.002,29.614 20.638,27.282 17.722,27.282C14.805,27.282 12.441,29.614 12.441,32.491C12.441,35.367 14.805,37.699 17.722,37.699Z" fill="#D690A7"/>
<path d="M17.556,37.786C20.473,37.786 22.837,35.454 22.837,32.578C22.837,29.701 20.473,27.369 17.556,27.369C14.64,27.369 12.276,29.701 12.276,32.578C12.276,35.454 14.64,37.786 17.556,37.786Z" fill="#D68FA8"/>
<path d="M17.394,37.874C20.31,37.874 22.674,35.542 22.674,32.665C22.674,29.788 20.31,27.456 17.394,27.456C14.478,27.456 12.114,29.788 12.114,32.665C12.114,35.542 14.478,37.874 17.394,37.874Z" fill="#D68EA9"/>
<path d="M17.232,37.958C20.148,37.958 22.512,35.626 22.512,32.749C22.512,29.873 20.148,27.541 17.232,27.541C14.316,27.541 11.952,29.873 11.952,32.749C11.952,35.626 14.316,37.958 17.232,37.958Z" fill="#D78DA9"/>
<path d="M17.07,38.045C19.986,38.045 22.35,35.713 22.35,32.837C22.35,29.96 19.986,27.628 17.07,27.628C14.154,27.628 11.79,29.96 11.79,32.837C11.79,35.713 14.154,38.045 17.07,38.045Z" fill="#D78CAA"/>
<path d="M16.908,38.132C19.824,38.132 22.188,35.8 22.188,32.924C22.188,30.047 19.824,27.715 16.908,27.715C13.992,27.715 11.628,30.047 11.628,32.924C11.628,35.8 13.992,38.132 16.908,38.132Z" fill="#D78BAB"/>
<path d="M16.742,38.217C19.659,38.217 22.023,35.885 22.023,33.008C22.023,30.132 19.659,27.8 16.742,27.8C13.826,27.8 11.462,30.132 11.462,33.008C11.462,35.885 13.826,38.217 16.742,38.217Z" fill="#D88AAB"/>
<path d="M16.58,38.304C19.497,38.304 21.861,35.972 21.861,33.096C21.861,30.219 19.497,27.887 16.58,27.887C13.664,27.887 11.3,30.219 11.3,33.096C11.3,35.972 13.664,38.304 16.58,38.304Z" fill="#D889AC"/>
<path d="M16.418,38.391C19.335,38.391 21.699,36.059 21.699,33.183C21.699,30.306 19.335,27.974 16.418,27.974C13.502,27.974 11.138,30.306 11.138,33.183C11.138,36.059 13.502,38.391 16.418,38.391Z" fill="#D888AD"/>
<path d="M16.256,38.479C19.173,38.479 21.537,36.147 21.537,33.27C21.537,30.393 19.173,28.061 16.256,28.061C13.34,28.061 10.976,30.393 10.976,33.27C10.976,36.147 13.34,38.479 16.256,38.479Z" fill="#D887AD"/>
<path d="M16.094,38.563C19.01,38.563 21.374,36.231 21.374,33.354C21.374,30.477 19.01,28.146 16.094,28.146C13.178,28.146 10.814,30.477 10.814,33.354C10.814,36.231 13.178,38.563 16.094,38.563Z" fill="#D986AE"/>
<path d="M15.929,38.65C18.845,38.65 21.209,36.318 21.209,33.442C21.209,30.565 18.845,28.233 15.929,28.233C13.013,28.233 10.649,30.565 10.649,33.442C10.649,36.318 13.013,38.65 15.929,38.65Z" fill="#D985AF"/>
<path d="M15.766,38.738C18.683,38.738 21.047,36.406 21.047,33.529C21.047,30.652 18.683,28.32 15.766,28.32C12.85,28.32 10.486,30.652 10.486,33.529C10.486,36.406 12.85,38.738 15.766,38.738Z" fill="#D984AF"/>
<path d="M15.605,38.822C18.521,38.822 20.885,36.49 20.885,33.613C20.885,30.737 18.521,28.405 15.605,28.405C12.688,28.405 10.324,30.737 10.324,33.613C10.324,36.49 12.688,38.822 15.605,38.822Z" fill="#DA83B0"/>
<path d="M15.443,38.909C18.359,38.909 20.723,36.577 20.723,33.7C20.723,30.824 18.359,28.492 15.443,28.492C12.526,28.492 10.162,30.824 10.162,33.7C10.162,36.577 12.526,38.909 15.443,38.909Z" fill="#DA82B1"/>
<path d="M15.28,38.996C18.197,38.996 20.561,36.664 20.561,33.787C20.561,30.911 18.197,28.579 15.28,28.579C12.364,28.579 10,30.911 10,33.787C10,36.664 12.364,38.996 15.28,38.996Z" fill="#DA81B1"/>
<path d="M15.115,39.081C18.032,39.081 20.396,36.749 20.396,33.872C20.396,30.995 18.032,28.663 15.115,28.663C12.199,28.663 9.835,30.995 9.835,33.872C9.835,36.749 12.199,39.081 15.115,39.081Z" fill="#DB80B2"/>
<path d="M14.953,39.168C17.869,39.168 20.233,36.836 20.233,33.959C20.233,31.083 17.869,28.751 14.953,28.751C12.037,28.751 9.673,31.083 9.673,33.959C9.673,36.836 12.037,39.168 14.953,39.168Z" fill="#DB7FB3"/>
<path d="M14.791,39.255C17.707,39.255 20.071,36.923 20.071,34.046C20.071,31.17 17.707,28.838 14.791,28.838C11.875,28.838 9.51,31.17 9.51,34.046C9.51,36.923 11.875,39.255 14.791,39.255Z" fill="#DB7EB3"/>
<path d="M14.629,39.342C17.545,39.342 19.909,37.01 19.909,34.134C19.909,31.257 17.545,28.925 14.629,28.925C11.712,28.925 9.348,31.257 9.348,34.134C9.348,37.01 11.712,39.342 14.629,39.342Z" fill="#DC7DB4"/>
<path d="M14.467,39.427C17.383,39.427 19.747,37.095 19.747,34.218C19.747,31.342 17.383,29.01 14.467,29.01C11.55,29.01 9.186,31.342 9.186,34.218C9.186,37.095 11.55,39.427 14.467,39.427Z" fill="#DC7CB5"/>
<path d="M14.302,39.514C17.218,39.514 19.582,37.182 19.582,34.305C19.582,31.429 17.218,29.097 14.302,29.097C11.385,29.097 9.021,31.429 9.021,34.305C9.021,37.182 11.385,39.514 14.302,39.514Z" fill="#DC7BB5"/>
<path d="M14.139,39.601C17.056,39.601 19.42,37.269 19.42,34.392C19.42,31.516 17.056,29.184 14.139,29.184C11.223,29.184 8.859,31.516 8.859,34.392C8.859,37.269 11.223,39.601 14.139,39.601Z" fill="#DC7AB6"/>
<path d="M13.977,39.686C16.894,39.686 19.258,37.354 19.258,34.477C19.258,31.6 16.894,29.268 13.977,29.268C11.061,29.268 8.697,31.6 8.697,34.477C8.697,37.354 11.061,39.686 13.977,39.686Z" fill="#DD79B7"/>
<path d="M13.815,39.772C16.731,39.772 19.095,37.441 19.095,34.564C19.095,31.687 16.731,29.355 13.815,29.355C10.899,29.355 8.535,31.687 8.535,34.564C8.535,37.441 10.899,39.772 13.815,39.772Z" fill="#DD78B7"/>
<path d="M13.653,39.86C16.569,39.86 18.933,37.528 18.933,34.652C18.933,31.775 16.569,29.443 13.653,29.443C10.736,29.443 8.372,31.775 8.372,34.652C8.372,37.528 10.736,39.86 13.653,39.86Z" fill="#DD77B8"/>
<path d="M13.487,39.947C16.404,39.947 18.768,37.615 18.768,34.739C18.768,31.862 16.404,29.53 13.487,29.53C10.571,29.53 8.207,31.862 8.207,34.739C8.207,37.615 10.571,39.947 13.487,39.947Z" fill="#DE76B9"/>
<path d="M13.326,40.032C16.242,40.032 18.606,37.7 18.606,34.823C18.606,31.946 16.242,29.614 13.326,29.614C10.409,29.614 8.045,31.946 8.045,34.823C8.045,37.7 10.409,40.032 13.326,40.032Z" fill="#DE75B9"/>
<path d="M13.164,40.119C16.08,40.119 18.444,37.787 18.444,34.911C18.444,32.034 16.08,29.702 13.164,29.702C10.247,29.702 7.883,32.034 7.883,34.911C7.883,37.787 10.247,40.119 13.164,40.119Z" fill="#DE74BA"/>
<path d="M13.001,40.206C15.918,40.206 18.282,37.874 18.282,34.997C18.282,32.121 15.918,29.789 13.001,29.789C10.085,29.789 7.721,32.121 7.721,34.997C7.721,37.874 10.085,40.206 13.001,40.206Z" fill="#DF73BB"/>
<path d="M12.839,40.291C15.755,40.291 18.119,37.959 18.119,35.082C18.119,32.205 15.755,29.873 12.839,29.873C9.923,29.873 7.559,32.205 7.559,35.082C7.559,37.959 9.923,40.291 12.839,40.291Z" fill="#DF72BB"/>
<path d="M12.677,40.378C15.593,40.378 17.957,38.046 17.957,35.169C17.957,32.292 15.593,29.96 12.677,29.96C9.761,29.96 7.397,32.292 7.397,35.169C7.397,38.046 9.761,40.378 12.677,40.378Z" fill="#DF71BC"/>
<path d="M12.512,40.465C15.428,40.465 17.792,38.133 17.792,35.256C17.792,32.38 15.428,30.048 12.512,30.048C9.596,30.048 7.231,32.38 7.231,35.256C7.231,38.133 9.596,40.465 12.512,40.465Z" fill="#DF70BD"/>
<path d="M12.35,40.552C15.266,40.552 17.63,38.22 17.63,35.344C17.63,32.467 15.266,30.135 12.35,30.135C9.434,30.135 7.07,32.467 7.07,35.344C7.07,38.22 9.434,40.552 12.35,40.552Z" fill="#E06FBD"/>
<path d="M12.188,40.636C15.104,40.636 17.468,38.305 17.468,35.428C17.468,32.551 15.104,30.219 12.188,30.219C9.271,30.219 6.907,32.551 6.907,35.428C6.907,38.305 9.271,40.636 12.188,40.636Z" fill="#E06EBE"/>
<path d="M12.025,40.724C14.941,40.724 17.305,38.392 17.305,35.515C17.305,32.638 14.941,30.306 12.025,30.306C9.109,30.306 6.745,32.638 6.745,35.515C6.745,38.392 9.109,40.724 12.025,40.724Z" fill="#E06DBF"/>
<path d="M11.863,40.811C14.779,40.811 17.144,38.479 17.144,35.602C17.144,32.726 14.779,30.394 11.863,30.394C8.947,30.394 6.583,32.726 6.583,35.602C6.583,38.479 8.947,40.811 11.863,40.811Z" fill="#E16CBF"/>
<path d="M11.698,40.896C14.614,40.896 16.978,38.564 16.978,35.687C16.978,32.81 14.614,30.478 11.698,30.478C8.782,30.478 6.418,32.81 6.418,35.687C6.418,38.564 8.782,40.896 11.698,40.896Z" fill="#E16BC0"/>
</svg>
