<svg width="14" height="24" viewBox="0 0 14 24" fill="none" xmlns="http://www.w3.org/2000/svg" xmlns:xlink="http://www.w3.org/1999/xlink">
<path d="M12.061,13.061L2.061,23.061C1.779,23.343 1.397,23.501 0.999,23.501C0.6,23.501 0.218,23.343 -0.064,23.061C-0.346,22.779 -0.504,22.397 -0.504,21.999C-0.504,21.6 -0.346,21.218 -0.064,20.936L8.875,12L-0.061,3.061C-0.201,2.922 -0.311,2.756 -0.387,2.574C-0.462,2.391 -0.501,2.196 -0.501,1.999C-0.501,1.801 -0.462,1.606 -0.387,1.424C-0.311,1.241 -0.201,1.076 -0.061,0.936C0.078,0.797 0.244,0.686 0.426,0.61C0.609,0.535 0.804,0.496 1.001,0.496C1.199,0.496 1.394,0.535 1.576,0.61C1.759,0.686 1.924,0.797 2.064,0.936L12.064,10.936C12.203,11.076 12.314,11.241 12.39,11.424C12.465,11.606 12.504,11.802 12.504,11.999C12.503,12.197 12.464,12.392 12.388,12.574C12.312,12.757 12.201,12.922 12.061,13.061Z" fill="#FFFFFF"/>
</svg>
