<svg width="40" height="40" viewBox="0 0 40 40" fill="none" xmlns="http://www.w3.org/2000/svg" xmlns:xlink="http://www.w3.org/1999/xlink">
<path d="M20,0.5C16.143,0.5 12.373,1.644 9.166,3.786C5.96,5.929 3.46,8.975 1.984,12.538C0.508,16.101 0.122,20.022 0.875,23.804C1.627,27.587 3.484,31.061 6.211,33.789C8.939,36.516 12.413,38.373 16.196,39.125C19.978,39.878 23.899,39.492 27.462,38.016C31.025,36.54 34.071,34.04 36.214,30.834C38.356,27.627 39.5,23.857 39.5,20C39.495,14.83 37.438,9.873 33.783,6.217C30.127,2.562 25.17,0.505 20,0.5ZM20,32C19.555,32 19.12,31.868 18.75,31.621C18.38,31.374 18.092,31.022 17.921,30.611C17.751,30.2 17.706,29.748 17.793,29.311C17.88,28.875 18.094,28.474 18.409,28.159C18.724,27.844 19.125,27.63 19.561,27.543C19.998,27.456 20.45,27.501 20.861,27.671C21.272,27.842 21.624,28.13 21.871,28.5C22.118,28.87 22.25,29.305 22.25,29.75C22.25,30.347 22.013,30.919 21.591,31.341C21.169,31.763 20.597,32 20,32ZM21.5,22.865L21.5,23C21.5,23.398 21.342,23.779 21.061,24.061C20.779,24.342 20.398,24.5 20,24.5C19.602,24.5 19.221,24.342 18.939,24.061C18.658,23.779 18.5,23.398 18.5,23L18.5,21.5C18.5,21.102 18.658,20.721 18.939,20.439C19.221,20.158 19.602,20 20,20C22.481,20 24.5,18.313 24.5,16.25C24.5,14.188 22.481,12.5 20,12.5C17.519,12.5 15.5,14.188 15.5,16.25L15.5,17C15.5,17.398 15.342,17.779 15.061,18.061C14.779,18.342 14.398,18.5 14,18.5C13.602,18.5 13.221,18.342 12.939,18.061C12.658,17.779 12.5,17.398 12.5,17L12.5,16.25C12.5,12.528 15.864,9.5 20,9.5C24.136,9.5 27.5,12.528 27.5,16.25C27.5,19.509 24.92,22.237 21.5,22.865Z" fill="#FFFFFF"/>
</svg>
