<svg width="36" height="20" viewBox="0 0 36 20" fill="none" xmlns="http://www.w3.org/2000/svg" xmlns:xlink="http://www.w3.org/1999/xlink">
<path d="M34.592,3.592L19.592,18.592C19.383,18.802 19.135,18.968 18.861,19.082C18.588,19.195 18.294,19.254 17.998,19.254C17.702,19.254 17.409,19.195 17.135,19.082C16.862,18.968 16.613,18.802 16.404,18.592L1.404,3.592C0.982,3.169 0.744,2.596 0.744,1.998C0.744,1.4 0.982,0.827 1.404,0.404C1.827,-0.018 2.4,-0.256 2.998,-0.256C3.596,-0.256 4.169,-0.018 4.592,0.404L18,13.813L31.408,0.403C31.831,-0.02 32.404,-0.258 33.002,-0.258C33.6,-0.258 34.173,-0.02 34.596,0.403C35.018,0.825 35.256,1.399 35.256,1.996C35.256,2.594 35.018,3.167 34.596,3.59L34.592,3.592Z" fill="#252521"/>
</svg>
