<svg width="18" height="18" viewBox="0 0 18 18" fill="none" xmlns="http://www.w3.org/2000/svg" xmlns:xlink="http://www.w3.org/1999/xlink">
<path d="M6.547,17.66C5.194,17.66 3.998,17.421 2.955,16.941C1.912,16.464 1.105,15.798 0.531,14.951C-0.044,14.103 -0.33,13.113 -0.33,11.976C-0.33,10.839 0.024,9.824 0.737,9.001C1.447,8.177 2.466,7.536 3.795,7.079C5.124,6.623 6.694,6.393 8.503,6.393L12.215,6.393L12.215,9.804L8.847,9.804C7.816,9.804 7.009,9.983 6.426,10.338C5.842,10.696 5.548,11.161 5.548,11.74C5.548,12.319 5.784,12.743 6.252,13.077C6.72,13.411 7.321,13.578 8.055,13.578C8.789,13.578 9.419,13.423 10.014,13.11C10.609,12.799 11.095,12.376 11.475,11.839C11.852,11.304 12.076,10.702 12.147,10.033L13.626,10.636C13.626,12.041 13.334,13.271 12.748,14.33C12.165,15.389 11.34,16.207 10.273,16.786C9.207,17.365 7.964,17.654 6.544,17.654L6.547,17.66ZM17.235,17.126L12.044,17.126L12.044,13.65L11.735,13.348L11.735,6.93C11.735,5.883 11.384,5.092 10.686,4.558C9.988,4.024 9.03,3.755 7.816,3.755C6.9,3.755 6.028,3.911 5.203,4.224C4.378,4.537 3.656,4.982 3.038,5.561L0.289,2.219C1.205,1.395 2.357,0.742 3.742,0.264C5.129,-0.216 6.588,-0.455 8.126,-0.455C9.935,-0.455 11.522,-0.177 12.887,0.381C14.251,0.939 15.314,1.756 16.083,2.836C16.849,3.916 17.235,5.247 17.235,6.829L17.235,17.123L17.235,17.126Z" fill="#252521"/>
</svg>
