<svg width="24" height="14" viewBox="0 0 24 14" fill="none" xmlns="http://www.w3.org/2000/svg" xmlns:xlink="http://www.w3.org/1999/xlink">
<path d="M23.061,13.061C22.922,13.201 22.756,13.312 22.574,13.388C22.392,13.463 22.196,13.502 21.999,13.502C21.801,13.502 21.606,13.463 21.424,13.388C21.241,13.312 21.076,13.201 20.936,13.061L12,4.125L3.061,13.061C2.779,13.343 2.397,13.501 1.999,13.501C1.6,13.501 1.218,13.343 0.936,13.061C0.654,12.779 0.496,12.397 0.496,11.999C0.496,11.6 0.654,11.218 0.936,10.936L10.936,0.936C11.076,0.796 11.241,0.685 11.424,0.61C11.606,0.534 11.801,0.495 11.999,0.495C12.196,0.495 12.392,0.534 12.574,0.61C12.756,0.685 12.922,0.796 13.061,0.936L23.061,10.936C23.201,11.076 23.312,11.241 23.388,11.424C23.464,11.606 23.502,11.801 23.502,11.999C23.502,12.196 23.464,12.392 23.388,12.574C23.312,12.756 23.201,12.922 23.061,13.061Z" fill="#252521"/>
</svg>
