<svg width="6" height="26" viewBox="0 0 6 26" fill="none" xmlns="http://www.w3.org/2000/svg" xmlns:xlink="http://www.w3.org/1999/xlink">
<path d="M2.7,6.107C1.784,6.107 1.003,5.811 0.364,5.221C-0.278,4.63 -0.599,3.902 -0.599,3.031C-0.599,2.159 -0.278,1.398 0.364,0.808C1.006,0.217 1.784,-0.079 2.7,-0.079C3.617,-0.079 4.424,0.217 5.054,0.808C5.685,1.398 6,2.138 6,3.031C6,3.923 5.685,4.63 5.054,5.221C4.424,5.811 3.64,6.107 2.7,6.107ZM5.623,25.123L-0.187,25.123L-0.187,8.076L5.623,8.076L5.623,25.123Z" fill="#252521"/>
</svg>
