<svg width="36" height="22" viewBox="0 0 36 22" fill="none" xmlns="http://www.w3.org/2000/svg" xmlns:xlink="http://www.w3.org/1999/xlink">
<path d="M34.592,19.592C34.383,19.802 34.134,19.968 33.861,20.082C33.587,20.195 33.294,20.254 32.998,20.254C32.702,20.254 32.409,20.195 32.135,20.082C31.862,19.968 31.613,19.802 31.404,19.592L18,6.188L4.592,19.592C4.169,20.015 3.596,20.252 2.998,20.252C2.4,20.252 1.827,20.015 1.404,19.592C0.982,19.169 0.744,18.596 0.744,17.998C0.744,17.4 0.982,16.827 1.404,16.404L16.404,1.404C16.613,1.195 16.862,1.028 17.135,0.915C17.409,0.801 17.702,0.743 17.998,0.743C18.294,0.743 18.588,0.801 18.861,0.915C19.135,1.028 19.383,1.195 19.592,1.404L34.592,16.404C34.802,16.613 34.968,16.862 35.082,17.135C35.195,17.409 35.254,17.702 35.254,17.998C35.254,18.294 35.195,18.587 35.082,18.861C34.968,19.134 34.802,19.383 34.592,19.592Z" fill="#252521"/>
</svg>
