<svg width="22" height="22" viewBox="0 0 22 22" fill="none" xmlns="http://www.w3.org/2000/svg" xmlns:xlink="http://www.w3.org/1999/xlink">
<path d="M20.061,17.939C20.343,18.221 20.501,18.603 20.501,19.001C20.501,19.4 20.343,19.782 20.061,20.064C19.78,20.346 19.397,20.504 18.999,20.504C18.6,20.504 18.218,20.346 17.936,20.064L10,12.125L2.061,20.061C1.779,20.343 1.397,20.501 0.999,20.501C0.6,20.501 0.218,20.343 -0.064,20.061C-0.346,19.78 -0.504,19.397 -0.504,18.999C-0.504,18.6 -0.346,18.218 -0.064,17.936L7.875,10L-0.061,2.061C-0.343,1.779 -0.501,1.397 -0.501,0.999C-0.501,0.6 -0.343,0.218 -0.061,-0.064C0.221,-0.346 0.603,-0.504 1.001,-0.504C1.4,-0.504 1.782,-0.346 2.064,-0.064L10,7.875L17.939,-0.065C18.221,-0.347 18.603,-0.505 19.001,-0.505C19.4,-0.505 19.782,-0.347 20.064,-0.065C20.346,0.217 20.504,0.599 20.504,0.998C20.504,1.396 20.346,1.778 20.064,2.06L12.125,10L20.061,17.939Z" fill="#252521"/>
</svg>
