<svg width="28" height="28" viewBox="0 0 28 28" fill="none" xmlns="http://www.w3.org/2000/svg" xmlns:xlink="http://www.w3.org/1999/xlink">
<path d="M11.5,8.5C11.5,8.104 11.617,7.718 11.837,7.389C12.057,7.06 12.369,6.804 12.735,6.652C13.1,6.501 13.502,6.461 13.89,6.538C14.278,6.616 14.635,6.806 14.914,7.086C15.194,7.365 15.384,7.722 15.462,8.11C15.539,8.498 15.499,8.9 15.348,9.265C15.196,9.631 14.94,9.943 14.611,10.163C14.282,10.383 13.896,10.5 13.5,10.5C12.97,10.5 12.461,10.289 12.086,9.914C11.711,9.539 11.5,9.03 11.5,8.5ZM27.5,14C27.5,16.67 26.708,19.28 25.225,21.5C23.741,23.72 21.633,25.451 19.166,26.472C16.699,27.494 13.985,27.762 11.366,27.241C8.748,26.72 6.342,25.434 4.454,23.546C2.566,21.658 1.28,19.252 0.759,16.634C0.239,14.015 0.506,11.301 1.528,8.834C2.549,6.367 4.28,4.259 6.5,2.775C8.72,1.292 11.33,0.5 14,0.5C17.579,0.504 21.011,1.928 23.542,4.458C26.072,6.989 27.496,10.421 27.5,14ZM24.5,14C24.5,11.923 23.884,9.893 22.73,8.167C21.577,6.44 19.937,5.094 18.018,4.299C16.1,3.505 13.988,3.297 11.952,3.702C9.915,4.107 8.044,5.107 6.575,6.575C5.107,8.044 4.107,9.915 3.702,11.952C3.297,13.988 3.505,16.1 4.299,18.018C5.094,19.937 6.44,21.577 8.167,22.73C9.893,23.884 11.923,24.5 14,24.5C16.784,24.497 19.453,23.39 21.421,21.421C23.39,19.453 24.497,16.784 24.5,14ZM15.5,18.585L15.5,14.5C15.5,13.837 15.237,13.201 14.768,12.732C14.299,12.263 13.663,12 13,12C12.646,11.999 12.303,12.124 12.032,12.352C11.761,12.581 11.579,12.897 11.519,13.246C11.459,13.596 11.525,13.955 11.705,14.26C11.884,14.565 12.166,14.797 12.5,14.915L12.5,19C12.5,19.663 12.763,20.299 13.232,20.768C13.701,21.237 14.337,21.5 15,21.5C15.354,21.501 15.697,21.376 15.968,21.148C16.239,20.919 16.421,20.603 16.481,20.254C16.541,19.904 16.475,19.545 16.295,19.24C16.116,18.935 15.834,18.703 15.5,18.585Z" fill="#9F9F99"/>
</svg>
