<svg width="8" height="26" viewBox="0 0 8 26" fill="none" xmlns="http://www.w3.org/2000/svg" xmlns:xlink="http://www.w3.org/1999/xlink">
<path d="M3.727,6.107C2.811,6.107 2.03,5.811 1.39,5.221C0.748,4.63 0.427,3.902 0.427,3.031C0.427,2.159 0.748,1.398 1.39,0.808C2.033,0.217 2.811,-0.079 3.727,-0.079C4.643,-0.079 5.45,0.217 6.081,0.808C6.711,1.398 7.026,2.138 7.026,3.031C7.026,3.923 6.711,4.63 6.081,5.221C5.45,5.811 4.667,6.107 3.727,6.107ZM6.649,25.123L0.84,25.123L0.84,8.076L6.649,8.076L6.649,25.123Z" fill="#252521"/>
</svg>
