<svg width="22" height="18" viewBox="0 0 22 18" fill="none" xmlns="http://www.w3.org/2000/svg" xmlns:xlink="http://www.w3.org/1999/xlink">
<path d="M10.404,17.66C8.433,17.66 6.698,17.275 5.198,16.508C3.698,15.738 2.529,14.67 1.692,13.301C0.855,11.931 0.437,10.365 0.437,8.604C0.437,6.844 0.855,5.25 1.692,3.893C2.529,2.535 3.696,1.47 5.198,0.7C6.698,-0.07 8.436,-0.452 10.404,-0.452C12.372,-0.452 14.11,-0.067 15.612,0.7C17.112,1.47 18.282,2.532 19.118,3.893C19.955,5.253 20.373,6.823 20.373,8.604C20.373,10.385 19.955,11.931 19.118,13.301C18.282,14.67 17.112,15.741 15.612,16.508C14.11,17.278 12.375,17.66 10.404,17.66ZM10.404,13.047C11.205,13.047 11.903,12.859 12.501,12.48C13.096,12.101 13.562,11.579 13.892,10.911C14.225,10.242 14.39,9.472 14.39,8.604C14.39,7.736 14.222,6.966 13.892,6.298C13.559,5.629 13.096,5.107 12.501,4.728C11.906,4.349 11.205,4.161 10.404,4.161C9.602,4.161 8.931,4.352 8.324,4.728C7.717,5.107 7.246,5.629 6.916,6.298C6.583,6.966 6.418,7.736 6.418,8.604C6.418,9.472 6.583,10.242 6.916,10.911C7.248,11.579 7.717,12.104 8.324,12.48C8.931,12.859 9.623,13.047 10.404,13.047Z" fill="#252521"/>
</svg>
