<svg width="26" height="20" viewBox="0 0 26 20" fill="none" xmlns="http://www.w3.org/2000/svg" xmlns:xlink="http://www.w3.org/1999/xlink">
<path d="M25.061,2.061L9.061,18.061C8.922,18.201 8.756,18.312 8.574,18.388C8.392,18.463 8.196,18.502 7.999,18.502C7.801,18.502 7.606,18.463 7.424,18.388C7.241,18.312 7.076,18.201 6.936,18.061L-0.064,11.061C-0.203,10.922 -0.314,10.756 -0.389,10.574C-0.465,10.391 -0.504,10.196 -0.504,9.999C-0.504,9.801 -0.465,9.606 -0.389,9.424C-0.314,9.241 -0.203,9.076 -0.064,8.936C0.076,8.797 0.241,8.686 0.424,8.611C0.606,8.535 0.801,8.496 0.999,8.496C1.196,8.496 1.391,8.535 1.574,8.611C1.756,8.686 1.922,8.797 2.061,8.936L8,14.875L22.939,-0.061C23.221,-0.343 23.603,-0.501 24.001,-0.501C24.4,-0.501 24.782,-0.343 25.064,-0.061C25.346,0.221 25.504,0.603 25.504,1.001C25.504,1.4 25.346,1.782 25.064,2.064L25.061,2.061Z" fill="#F6F6F2"/>
</svg>
