<svg width="22" height="24" viewBox="0 0 22 24" fill="none" xmlns="http://www.w3.org/2000/svg" xmlns:xlink="http://www.w3.org/1999/xlink">
<path d="M20.748,23.126L14.973,23.126L14.973,19.483L14.938,19.116L14.938,14.47C14.938,13.557 14.767,12.781 14.423,12.145C14.078,11.51 13.603,11.02 12.997,10.674C12.39,10.328 11.694,10.155 10.917,10.155C10.092,10.155 9.376,10.346 8.769,10.722C8.162,11.101 7.697,11.623 7.375,12.292C7.054,12.96 6.895,13.73 6.895,14.598C6.895,15.466 7.072,16.209 7.428,16.887C7.785,17.567 8.283,18.095 8.925,18.474C9.567,18.853 10.31,19.041 11.158,19.041C11.821,19.041 12.431,18.925 12.979,18.689C13.527,18.453 13.992,18.122 14.372,17.686C14.75,17.251 14.997,16.746 15.112,16.165L16.417,16.699C16.417,17.97 16.152,19.133 15.627,20.193C15.1,21.252 14.325,22.093 13.306,22.717C12.287,23.341 11.032,23.654 9.544,23.654C8.056,23.654 6.583,23.275 5.266,22.517C3.949,21.759 2.894,20.703 2.105,19.342C1.315,17.985 0.921,16.4 0.921,14.595C0.921,12.79 1.315,11.182 2.105,9.833C2.894,8.484 3.949,7.431 5.266,6.673C6.583,5.915 8.021,5.536 9.579,5.536C10.955,5.536 12.116,5.793 13.067,6.306C14.019,6.819 14.767,7.52 15.318,8.413C15.869,9.305 16.199,10.316 16.314,11.453L14.938,11.453L14.938,-0.948L20.748,-0.948L20.748,23.117L20.748,23.126Z" fill="#252521"/>
</svg>
